<svg xmlns="http://www.w3.org/2000/svg" width="500" height="500" viewBox="0 0 500 500">
<g>
<path d="M 191.78 436.00 C131.85,433.05 92.27,425.55 95.28,417.70 C96.57,414.35 107.09,410.65 122.75,408.04 C126.19,407.47 131.59,406.58 134.75,406.06 C137.91,405.54 144.38,404.81 149.12,404.45 C155.78,403.94 158.33,403.30 160.36,401.64 L 162.98 399.50 L 160.02 395.13 C154.62,387.21 154.73,378.31 160.36,366.46 C164.32,358.12 174.38,346.85 183.24,340.84 C186.41,338.69 189.00,336.75 189.00,336.54 C189.00,336.33 186.41,336.21 183.25,336.29 C174.93,336.48 169.49,334.54 164.04,329.44 C156.62,322.50 154.09,311.71 157.51,301.62 C159.34,296.24 158.22,292.00 154.97,292.00 C153.82,292.00 150.84,290.07 148.34,287.71 C144.50,284.08 143.80,282.83 143.80,279.60 C143.80,276.57 144.54,275.03 147.40,272.10 C150.66,268.77 152.16,265.02 150.25,264.99 C149.84,264.98 147.70,263.29 145.50,261.22 C143.30,259.15 136.55,253.19 130.50,247.98 C116.88,236.24 114.02,233.77 112.60,232.50 C111.98,231.95 108.33,228.80 104.49,225.50 C100.65,222.21 97.00,219.06 96.38,218.50 C95.76,217.95 91.28,214.12 86.42,210.00 C71.76,197.56 71.67,197.45 72.33,193.20 C72.76,190.44 74.08,188.45 77.56,185.35 C82.25,181.17 85.63,179.95 89.74,180.96 C92.27,181.58 91.80,181.20 110.54,197.95 C118.26,204.85 127.91,213.43 131.98,217.00 C136.05,220.57 143.91,227.50 149.44,232.40 C154.97,237.29 160.87,242.47 162.55,243.90 C164.22,245.33 166.58,247.36 167.80,248.40 C169.75,250.09 170.20,250.14 171.75,248.85 C172.71,248.04 174.85,246.80 176.50,246.08 L 179.50 244.78 L 177.00 243.14 C172.41,240.13 166.24,233.98 162.85,229.06 C159.83,224.67 158.96,224.08 154.09,223.09 C138.39,219.93 130.13,207.12 130.04,185.77 C129.99,176.52 132.83,166.87 137.13,161.66 C140.12,158.03 149.29,153.00 152.91,153.00 C154.47,153.00 155.77,151.21 158.49,145.31 C166.52,127.93 179.60,115.33 199.29,105.97 C207.57,102.04 223.36,97.00 227.41,97.00 C230.50,97.00 232.00,95.13 232.00,91.28 C232.00,88.57 231.49,87.76 229.25,86.91 C215.19,81.56 211.52,64.31 222.53,55.24 C237.23,43.12 260.21,53.79 257.55,71.50 C256.80,76.52 252.70,82.07 247.90,84.55 C244.16,86.49 244.18,86.50 243.44,82.54 C243.08,80.63 242.17,78.55 241.41,77.92 C239.15,76.05 238.59,79.36 240.02,86.10 C241.78,94.38 242.92,95.00 256.36,95.00 C283.18,95.00 309.19,103.21 326.55,117.16 C335.63,124.46 341.78,132.28 347.44,143.75 C350.46,149.86 351.30,150.78 354.93,151.98 C363.31,154.74 369.87,162.81 372.93,174.11 C373.70,176.96 374.05,183.05 373.84,190.11 C373.55,199.95 373.14,202.28 370.82,207.22 C366.70,216.01 360.99,220.97 352.35,223.29 C348.52,224.32 345.98,226.09 340.27,231.70 C334.59,237.28 330.84,239.90 322.77,243.91 C317.12,246.71 311.83,249.01 311.00,249.02 C310.17,249.03 308.86,249.44 308.08,249.93 C307.01,250.61 307.88,251.39 311.58,253.11 C317.95,256.07 326.79,265.10 330.12,272.03 C336.69,285.73 335.99,302.76 328.40,313.93 C326.30,317.02 326.19,317.65 327.43,319.53 C328.19,320.69 329.36,323.48 330.04,325.72 C331.00,328.95 332.65,330.87 337.88,334.86 C341.52,337.65 345.62,340.96 347.00,342.22 C348.38,343.49 354.11,348.53 359.75,353.42 C366.64,359.41 370.00,363.01 370.00,364.41 C370.00,368.02 363.58,374.00 359.71,374.00 C358.92,374.00 356.58,372.85 354.51,371.44 C351.40,369.33 350.86,369.20 351.45,370.69 C355.63,381.45 355.99,394.82 352.21,399.93 C351.01,401.56 350.35,403.09 350.76,403.33 C351.17,403.58 355.33,404.08 360.00,404.46 C371.61,405.40 391.94,408.69 400.90,411.09 C408.65,413.17 414.00,416.19 414.00,418.50 C414.00,424.93 389.19,430.32 340.00,434.57 C318.61,436.42 219.67,437.37 191.78,436.00 ZM 342.73 419.61 C349.28,417.34 348.30,414.11 339.30,408.33 C334.69,405.38 333.31,405.00 327.21,405.00 C316.57,405.00 297.50,412.16 298.22,415.89 C299.17,420.83 331.40,423.52 342.73,419.61 ZM 202.75 417.05 C206.72,415.53 206.92,413.60 203.25,412.18 C193.38,408.37 176.35,403.00 174.14,403.00 C171.08,403.01 166.68,405.52 162.75,409.49 C158.27,414.03 159.30,416.06 167.00,417.85 C172.92,419.22 198.56,418.65 202.75,417.05 ZM 304.44 402.94 C317.79,398.28 327.44,396.04 334.21,396.02 C340.91,395.99 341.81,393.98 339.01,385.31 C335.17,373.42 326.31,359.60 316.10,349.58 L 311.08 344.65 L 307.04 345.99 C304.82,346.72 303.01,347.59 303.02,347.91 C303.04,348.23 304.81,349.80 306.96,351.40 C311.35,354.64 313.53,358.83 312.62,362.23 C311.89,364.92 306.40,371.18 303.31,372.83 C298.71,375.29 297.69,374.75 281.46,361.25 C276.86,357.42 274.31,356.00 272.07,356.00 C270.38,356.00 269.00,356.45 269.00,357.00 C269.00,357.55 269.47,358.00 270.05,358.00 C270.63,358.00 272.77,359.15 274.80,360.55 L 278.50 363.10 L 275.50 362.45 C273.85,362.09 270.92,361.43 269.00,360.98 C267.08,360.53 263.06,359.85 260.08,359.46 L 254.66 358.77 L 256.86 361.63 C264.55,371.69 268.14,377.20 267.72,378.30 C267.45,378.99 263.74,380.18 259.47,380.94 C250.41,382.55 251.55,383.35 244.42,370.29 C241.96,365.77 239.48,361.80 238.93,361.45 C237.41,360.52 235.56,362.43 229.35,371.38 C226.24,375.84 223.61,379.62 223.50,379.77 C223.11,380.28 208.08,372.49 208.04,371.75 C208.02,371.34 211.21,367.63 215.13,363.50 L 222.25 356.00 L 211.63 356.00 C205.78,356.00 201.00,355.59 201.00,355.10 C201.00,354.60 203.35,353.63 206.23,352.94 L 211.47 351.69 L 203.04 347.78 C197.05,345.01 193.88,344.06 192.08,344.52 C190.69,344.86 186.16,348.60 182.02,352.82 C172.20,362.84 166.72,373.17 166.60,381.91 C166.54,386.83 166.92,388.29 168.85,390.34 C174.72,396.59 198.93,405.00 211.07,405.00 C215.99,405.00 216.05,403.96 211.25,401.25 C205.99,398.28 197.00,388.47 197.00,385.70 C197.00,385.23 198.75,386.34 200.89,388.18 C206.33,392.83 217.12,397.99 222.82,398.67 C227.98,399.28 234.10,396.98 238.81,392.66 L 241.12 390.54 L 234.31 384.30 L 227.50 378.07 L 241.32 384.03 C248.92,387.32 256.12,390.00 257.32,390.00 C258.57,390.00 262.06,392.36 265.50,395.51 C273.30,402.68 281.79,407.00 288.05,407.00 C291.00,407.00 297.17,405.47 304.44,402.94 ZM 256.00 399.04 C256.00,397.88 252.71,396.00 250.68,396.00 C249.88,396.00 248.16,396.89 246.86,397.97 L 244.50 399.93 L 250.25 399.97 C253.41,399.99 256.00,399.57 256.00,399.04 ZM 343.01 374.31 C339.40,363.12 330.60,347.51 325.15,342.62 C323.32,340.98 322.67,340.90 320.03,341.99 C318.36,342.68 317.00,343.63 317.00,344.10 C317.00,344.57 319.76,348.00 323.12,351.72 C330.90,360.30 336.18,368.08 340.83,377.81 C343.61,383.64 344.58,384.95 344.82,383.21 C345.00,381.95 344.19,377.95 343.01,374.31 ZM 307.00 359.45 C307.00,358.66 301.26,353.51 294.25,348.00 C287.24,342.50 277.80,335.07 273.28,331.50 C268.75,327.92 264.62,325.00 264.09,325.00 C263.57,325.00 262.83,325.97 262.45,327.16 C261.96,328.69 262.35,329.77 263.79,330.91 C276.11,340.58 296.18,356.14 298.75,358.01 C301.17,359.77 302.01,361.16 302.03,363.44 L 302.06 366.50 L 304.53 363.69 C305.89,362.15 307.00,360.24 307.00,359.45 ZM 256.95 342.45 C254.48,339.46 252.01,338.75 248.79,340.09 C245.96,341.26 245.88,341.44 247.57,342.67 C248.57,343.40 251.38,344.00 253.81,344.00 C257.71,344.00 258.09,343.81 256.95,342.45 ZM 224.66 338.50 C224.83,337.95 222.49,335.94 219.45,334.03 C216.33,332.07 213.69,329.61 213.38,328.38 C213.08,327.17 211.74,325.17 210.42,323.92 C209.09,322.67 208.00,321.05 208.00,320.33 C208.00,317.88 206.39,318.97 204.18,322.89 C199.82,330.65 201.36,333.14 213.29,337.61 C219.58,339.97 224.09,340.32 224.66,338.50 ZM 248.34 332.24 C258.80,324.72 259.72,313.15 250.65,303.12 C248.17,300.37 239.47,296.02 236.43,296.01 C226.40,295.96 211.82,308.86 214.37,315.52 C215.32,317.99 218.02,318.42 221.11,316.59 C224.31,314.70 224.63,315.27 222.50,319.00 C220.50,322.49 220.66,325.38 222.96,327.47 C224.29,328.67 225.75,329.04 227.46,328.62 C228.86,328.28 231.14,327.72 232.52,327.38 L 235.05 326.76 L 233.27 329.93 C231.55,333.01 231.56,333.14 233.50,334.63 C236.51,336.93 243.34,335.83 248.34,332.24 ZM 288.00 330.07 C288.00,328.88 280.50,326.00 277.40,326.00 L 274.85 326.00 L 277.67 328.34 C282.21,332.09 284.25,332.94 286.22,331.88 C287.20,331.36 288.00,330.54 288.00,330.07 ZM 318.71 326.70 C319.38,326.04 319.58,324.94 319.16,324.26 C318.62,323.38 317.12,324.19 313.95,327.05 L 309.50 331.08 L 313.50 329.49 C315.70,328.62 318.05,327.36 318.71,326.70 ZM 189.39 326.48 C191.42,325.52 192.87,324.54 192.63,324.30 C192.39,324.05 190.82,324.56 189.14,325.43 C179.38,330.48 165.00,321.01 165.00,309.53 C165.00,308.14 164.55,307.00 164.00,307.00 C162.25,307.00 162.92,314.21 165.09,318.68 C169.52,327.85 179.66,331.10 189.39,326.48 ZM 303.06 325.89 C316.14,318.92 323.87,309.08 325.91,296.84 C327.00,290.25 326.92,288.70 325.09,281.69 C322.48,271.70 317.12,263.71 310.80,260.41 C306.90,258.37 299.68,258.67 294.54,261.09 C290.41,263.03 286.77,266.00 288.53,266.00 C288.95,266.00 287.50,267.30 285.31,268.89 C280.88,272.10 277.00,276.60 277.00,278.53 C277.00,279.22 278.24,280.09 279.75,280.46 C283.35,281.35 294.32,287.47 296.05,289.56 C297.27,291.03 297.00,291.02 293.45,289.47 C281.88,284.40 270.65,282.90 262.58,285.34 C258.46,286.58 256.53,289.00 259.67,289.00 C260.67,289.00 264.36,290.36 267.87,292.01 C279.74,297.63 291.04,312.29 292.61,324.12 C293.41,330.11 294.72,330.33 303.06,325.89 ZM 199.66 316.68 C200.47,315.13 200.93,313.33 200.69,312.68 C200.46,312.03 199.66,312.85 198.93,314.50 C198.20,316.15 196.70,318.85 195.61,320.50 L 193.62 323.50 L 195.91 321.50 C197.17,320.40 198.86,318.24 199.66,316.68 ZM 263.97 303.93 C262.60,300.62 257.62,296.00 255.42,296.00 C253.37,296.00 253.67,297.76 255.94,298.97 C257.01,299.54 259.36,302.06 261.16,304.58 C264.60,309.36 266.08,309.02 263.97,303.93 ZM 194.00 306.50 C198.15,304.36 202.00,298.89 202.00,295.16 C202.00,291.54 199.92,290.97 196.22,293.56 C195.00,294.41 194.00,294.66 194.00,294.12 C194.00,293.57 194.45,292.84 195.01,292.50 C195.56,292.15 196.68,290.59 197.49,289.02 C198.82,286.44 198.79,285.96 197.12,283.90 L 195.29 281.63 L 191.59 283.82 C186.67,286.72 186.46,286.61 189.02,282.47 C190.77,279.63 190.96,278.66 189.98,277.47 C188.18,275.31 185.25,275.67 180.11,278.68 L 175.54 281.36 L 177.44 278.43 C178.49,276.82 180.06,274.97 180.92,274.33 C185.22,271.14 175.64,270.70 171.17,273.88 C165.22,278.11 162.86,287.99 166.24,294.50 C168.48,298.82 172.96,303.55 177.00,305.86 C181.28,308.30 189.89,308.63 194.00,306.50 ZM 220.98 295.01 C220.92,292.85 211.34,285.65 209.48,286.37 C206.78,287.40 208.04,290.45 212.69,294.17 C216.56,297.25 217.59,297.65 219.15,296.68 C220.17,296.04 220.99,295.29 220.98,295.01 ZM 247.56 287.11 C250.40,283.74 257.22,280.31 262.90,279.40 C266.19,278.87 268.12,277.48 273.72,271.63 C277.47,267.71 283.00,262.32 286.02,259.67 L 291.50 254.83 L 288.00 255.46 C286.08,255.81 280.74,256.54 276.14,257.07 C267.03,258.13 265.26,258.81 260.00,263.24 C254.64,267.77 235.00,287.32 235.00,288.14 C235.00,288.85 238.20,289.55 242.81,289.85 C244.26,289.94 246.04,288.92 247.56,287.11 ZM 233.39 282.72 C236.34,279.08 237.78,276.48 237.28,275.70 C233.49,269.66 224.61,259.01 222.93,258.48 C219.83,257.49 210.86,257.74 209.76,258.84 C208.37,260.23 226.13,289.52 227.94,288.80 C228.36,288.64 230.81,285.90 233.39,282.72 ZM 216.98 280.46 C215.38,277.88 214.50,277.19 213.93,278.11 C212.97,279.66 214.39,282.56 216.75,283.88 C219.39,285.36 219.45,284.46 216.98,280.46 ZM 155.00 281.15 C155.00,280.69 154.16,279.55 153.14,278.63 C151.60,277.23 151.10,277.18 150.17,278.30 C149.34,279.30 149.35,279.95 150.22,280.82 C151.58,282.18 155.00,282.41 155.00,281.15 ZM 205.39 280.42 C205.73,279.55 206.00,277.56 206.00,276.01 C206.00,270.47 196.08,265.27 190.42,267.85 C187.04,269.40 187.39,270.65 191.85,272.93 C193.97,274.01 197.01,276.46 198.60,278.37 C201.73,282.13 204.42,282.94 205.39,280.42 ZM 166.93 267.71 C171.09,263.69 176.02,259.25 177.88,257.83 C181.41,255.13 181.40,253.00 177.85,253.00 C172.50,253.00 155.21,269.78 156.67,273.57 C157.62,276.06 159.17,275.18 166.93,267.71 ZM 183.50 266.00 C183.50,264.06 179.34,263.47 177.35,265.13 C175.97,266.27 176.01,266.49 177.65,267.15 C180.46,268.28 183.50,267.68 183.50,266.00 ZM 206.00 262.00 C206.00,261.45 204.99,261.01 203.75,261.02 C201.93,261.03 201.79,261.22 203.00,262.00 C204.94,263.25 206.00,263.25 206.00,262.00 ZM 197.63 255.37 L 201.50 253.74 L 197.00 252.39 C191.17,250.63 189.17,250.57 190.80,252.20 C191.46,252.86 192.00,254.21 192.00,255.20 C192.00,257.41 192.72,257.44 197.63,255.37 ZM 164.00 254.98 C165.23,254.17 164.61,253.15 160.46,249.24 C154.87,243.97 143.14,233.46 129.50,221.48 C124.55,217.13 120.28,213.33 120.00,213.04 C119.72,212.74 114.11,207.77 107.53,202.00 C100.95,196.22 94.24,190.26 92.63,188.75 C89.52,185.83 87.08,185.35 83.93,187.04 C81.54,188.31 81.45,189.85 83.71,190.72 C84.65,191.08 93.32,198.15 102.98,206.44 C112.64,214.72 124.81,225.10 130.02,229.49 C135.23,233.88 140.62,238.50 141.99,239.74 C143.36,240.99 144.94,241.84 145.49,241.65 C146.05,241.45 146.95,242.04 147.50,242.96 C148.77,245.07 160.72,256.01 161.74,255.98 C162.16,255.98 163.18,255.52 164.00,254.98 ZM 269.50 249.52 C286.16,247.52 302.33,244.06 304.33,242.07 C304.79,241.61 303.63,239.04 301.75,236.37 C298.14,231.23 296.55,227.63 295.46,222.17 C294.88,219.23 294.51,218.91 292.35,219.45 C288.76,220.35 224.57,222.09 203.24,221.87 C193.20,221.76 184.73,221.94 184.40,222.26 C183.28,223.38 186.96,233.65 189.97,237.80 C193.28,242.36 196.10,243.84 206.56,246.50 C223.95,250.91 248.20,252.08 269.50,249.52 ZM 317.98 236.44 C321.70,234.49 327.15,230.73 330.09,228.10 L 335.43 223.32 L 331.65 220.00 C323.93,213.22 320.52,202.34 320.51,184.50 C320.51,172.39 321.17,168.87 325.15,159.91 C327.15,155.41 333.52,150.00 336.81,150.00 C340.68,150.00 332.12,135.10 323.33,126.52 C317.81,121.14 309.34,115.16 304.89,113.50 C302.75,112.70 297.61,117.10 294.54,122.36 C293.21,124.63 291.16,130.01 289.98,134.31 C287.63,142.90 288.00,144.33 292.77,145.33 C294.27,145.64 297.97,147.38 300.99,149.20 C307.96,153.40 312.35,160.37 314.06,169.95 C315.58,178.46 314.79,195.62 312.54,202.81 C310.83,208.30 305.29,215.46 301.92,216.52 C297.60,217.90 300.74,230.29 307.09,236.93 C308.70,238.62 310.29,240.00 310.61,240.00 C310.94,240.00 314.25,238.40 317.98,236.44 ZM 182.89 233.25 C182.31,231.74 181.43,228.05 180.94,225.06 C180.22,220.69 179.36,219.03 176.55,216.56 C169.13,210.05 165.25,195.37 166.41,178.23 C167.36,164.28 169.71,159.79 180.77,150.83 C182.54,149.40 182.70,148.63 181.94,145.33 C180.75,140.23 180.77,132.73 181.98,129.57 C183.60,125.29 181.41,126.60 176.24,132.99 C170.23,140.42 165.78,149.23 162.82,159.57 C160.88,166.35 160.55,169.82 160.57,183.50 C160.59,198.02 160.84,200.29 163.27,208.05 C166.31,217.76 171.72,226.76 177.83,232.25 C182.85,236.76 184.36,237.05 182.89,233.25 ZM 206.48 209.88 C208.94,209.20 212.21,207.02 215.06,204.14 C224.59,194.52 226.07,181.05 218.79,170.27 C210.33,157.74 191.64,157.53 182.62,169.86 C176.74,177.88 175.57,186.10 178.99,195.25 C183.45,207.15 194.71,213.15 206.48,209.88 ZM 357.45 210.38 C358.33,210.04 359.53,208.88 360.10,207.81 C361.03,206.07 360.93,205.97 359.23,206.88 C356.52,208.33 353.77,206.14 350.94,200.28 C348.96,196.17 348.63,193.90 348.58,184.00 C348.53,171.82 349.06,169.84 353.78,164.78 C356.10,162.29 356.17,162.00 354.52,161.37 C351.90,160.36 349.87,162.06 347.07,167.59 C344.84,171.99 344.58,173.68 344.62,184.00 C344.68,197.02 347.02,205.30 351.70,208.98 C354.50,211.18 355.03,211.31 357.45,210.38 ZM 287.65 206.39 C293.16,203.78 297.55,198.91 299.63,193.09 C301.21,188.67 301.35,179.80 299.92,174.65 C298.75,170.43 292.17,162.66 287.91,160.45 C274.71,153.63 258.16,159.93 253.00,173.74 C247.28,189.01 255.19,204.39 270.95,208.64 C276.55,210.14 280.96,209.55 287.65,206.39 ZM 234.82 200.24 C235.08,198.44 234.66,198.00 232.68,198.00 C229.89,198.00 228.57,200.17 230.31,201.91 C232.05,203.65 234.46,202.76 234.82,200.24 ZM 148.75 188.72 C149.44,188.19 150.02,185.67 150.03,183.13 C150.05,180.58 150.71,174.93 151.48,170.57 C152.26,166.21 152.67,162.27 152.39,161.82 C152.11,161.37 150.81,161.00 149.51,161.00 C144.92,161.00 140.00,171.93 140.00,182.12 C140.00,186.86 140.38,188.15 142.11,189.37 C144.20,190.83 146.29,190.62 148.75,188.72 ZM 337.19 186.75 C338.24,185.92 338.94,183.15 339.30,178.48 C339.60,174.61 340.81,168.66 341.99,165.25 C343.18,161.83 343.86,158.58 343.51,158.02 C343.17,157.46 341.59,157.00 340.01,157.00 C336.51,157.00 333.84,160.12 331.16,167.33 C328.16,175.39 327.48,182.56 329.43,185.53 C331.19,188.23 334.65,188.77 337.19,186.75 ZM 197.46 145.07 C213.34,140.92 226.66,139.75 251.33,140.38 C264.07,140.70 276.57,141.23 279.09,141.57 L 283.69 142.18 L 284.99 136.02 C286.69,128.03 290.90,119.22 295.41,114.24 L 298.99 110.26 L 291.09 107.65 C262.62,98.24 224.52,100.76 200.08,113.67 C187.93,120.09 185.53,124.07 185.65,137.62 C185.72,146.42 186.36,148.46 188.75,147.54 C189.59,147.22 193.52,146.11 197.46,145.07 ZM 242.37 67.93 C245.54,65.43 245.74,62.21 242.93,58.63 C238.94,53.56 230.00,56.27 230.00,62.55 C230.00,65.76 234.16,70.00 237.32,70.00 C238.65,70.00 240.92,69.07 242.37,67.93 ZM 384.20 156.86 C381.27,155.74 379.06,154.30 379.27,153.66 C379.89,151.76 389.16,147.75 394.11,147.24 C397.98,146.85 399.05,147.14 400.86,149.08 C403.40,151.81 403.55,153.77 401.44,156.78 C400.16,158.60 398.96,158.99 394.69,158.95 C391.84,158.92 387.11,157.98 384.20,156.86 ZM 371.47 142.95 C370.48,141.35 372.02,132.12 374.07,127.33 C375.37,124.31 376.67,122.87 378.53,122.40 C383.96,121.04 388.11,125.95 386.07,131.32 C384.51,135.42 375.42,144.00 372.62,144.00 C372.35,144.00 371.83,143.53 371.47,142.95 ZM 240.22 241.53 C232.37,239.08 226.00,233.53 226.00,229.13 C226.00,228.52 232.51,227.98 242.75,227.74 C251.96,227.52 260.45,227.01 261.61,226.59 C264.19,225.67 265.38,227.94 264.04,231.26 C260.73,239.51 249.40,244.39 240.22,241.53 ZM 198.91 197.75 C195.36,194.67 193.88,191.59 193.82,187.12 C193.75,182.19 196.31,177.39 200.30,174.96 C203.95,172.73 206.37,172.54 210.85,174.10 C214.24,175.28 215.11,176.87 212.25,176.64 C209.97,176.46 209.33,181.20 211.41,182.92 C213.55,184.70 215.00,183.40 215.00,179.72 C215.00,176.56 215.00,176.56 216.56,178.79 C220.50,184.41 219.08,193.31 213.57,197.51 C209.22,200.83 202.58,200.94 198.91,197.75 ZM 261.40 196.10 C256.84,193.32 254.49,186.88 256.04,181.37 C257.42,176.43 260.09,173.70 265.11,172.09 C274.04,169.23 282.58,178.40 279.98,188.06 C277.61,196.86 268.86,200.65 261.40,196.10 ZM 277.00 179.64 C277.00,176.90 275.24,174.97 273.38,175.69 C271.42,176.43 271.67,180.71 273.73,181.87 C275.97,183.12 277.00,182.42 277.00,179.64 Z" fill="var(--icon-color)"/>
</g>
</svg>