<svg xmlns="http://www.w3.org/2000/svg" width="500" height="500" viewBox="0 0 500 500">
<g>
<path d="M 168.50 407.93 C101.48,405.39 62.00,400.78 62.00,395.50 C62.00,393.87 65.72,392.33 73.18,390.87 C76.66,390.19 79.87,389.33 80.32,388.95 C80.77,388.57 80.20,386.74 79.07,384.88 C76.37,380.45 76.30,372.28 78.91,367.21 C81.70,361.81 88.21,355.70 95.06,352.05 L 101.05 348.86 L 97.20 344.49 C93.11,339.84 91.00,334.49 91.00,328.76 C91.00,325.44 91.22,325.22 95.00,324.62 C103.23,323.30 113.25,326.58 117.87,332.10 C120.05,334.72 120.43,334.83 122.87,333.61 C128.65,330.70 136.11,331.00 138.16,334.23 C139.56,336.43 139.07,341.40 137.09,345.10 L 135.18 348.66 L 141.26 351.46 C144.69,353.03 149.50,356.40 152.28,359.19 L 157.22 364.13 L 158.80 361.81 C159.67,360.54 161.87,358.07 163.69,356.32 C165.51,354.57 167.00,352.74 167.00,352.26 C167.00,351.79 165.64,349.55 163.98,347.29 C161.54,343.98 160.01,342.96 155.95,341.99 C149.32,340.40 141.28,333.14 137.43,325.26 C135.24,320.79 134.60,318.04 134.55,312.92 C134.50,306.24 133.85,304.91 125.40,294.14 C125.24,293.94 123.85,294.66 122.31,295.73 C118.68,298.24 116.57,298.98 115.32,298.16 C113.42,296.91 107.00,287.85 107.00,286.41 C107.00,285.63 108.78,283.75 110.96,282.24 C113.14,280.73 114.94,278.99 114.96,278.36 C114.98,277.73 112.89,274.36 110.30,270.86 C99.67,256.46 88.00,238.52 88.02,236.58 C88.03,233.91 88.64,233.12 93.61,229.25 C100.74,223.70 104.49,223.24 108.51,227.41 C109.74,228.68 118.76,241.33 128.37,255.25 C132.07,260.61 135.64,264.99 136.30,264.98 C136.96,264.97 138.62,264.08 140.00,263.00 C144.38,259.57 147.06,260.39 151.25,266.43 C153.31,269.40 155.00,272.28 155.00,272.84 C155.00,273.40 153.45,275.14 151.54,276.70 L 148.09 279.55 L 153.42 285.28 L 158.74 291.00 L 165.66 291.00 L 172.57 291.00 L 178.03 285.38 C181.04,282.29 186.79,277.11 190.82,273.88 C195.04,270.49 197.58,267.81 196.82,267.57 C196.09,267.34 193.02,266.61 190.00,265.95 C178.69,263.47 168.23,256.55 161.93,247.39 C159.35,243.65 158.40,243.00 155.49,243.00 C149.64,243.00 141.38,239.26 137.67,234.93 C127.75,223.34 126.33,193.49 135.20,182.96 C137.40,180.36 142.95,176.82 147.65,175.04 C151.80,173.47 152.35,172.82 155.35,165.92 C166.04,141.34 190.22,122.46 220.50,115.02 C232.21,112.14 232.00,112.28 232.00,107.61 C232.00,103.77 231.68,103.22 228.60,101.75 C224.60,99.84 220.72,94.99 219.07,89.81 C217.83,85.94 218.84,80.24 221.34,76.96 C223.33,74.34 228.31,71.28 232.75,69.95 C240.28,67.70 249.30,71.74 253.02,79.04 C256.66,86.17 254.95,94.77 249.06,98.96 C247.31,100.20 245.74,101.06 245.57,100.86 C245.40,100.66 244.48,98.99 243.54,97.14 C240.88,91.91 239.67,94.47 241.05,102.39 C242.50,110.68 243.74,112.00 250.08,112.00 C262.04,112.00 285.50,116.94 296.50,121.77 C311.56,128.39 326.28,139.95 333.08,150.50 C334.50,152.70 336.83,156.35 338.25,158.61 C339.99,161.36 341.78,162.91 343.67,163.29 C347.77,164.11 354.67,169.05 357.47,173.17 C361.95,179.76 364.07,188.17 364.12,199.55 C364.15,205.27 363.62,211.65 362.95,213.72 C360.41,221.55 355.05,227.15 347.79,229.57 C344.26,230.74 342.53,232.05 340.88,234.82 C337.41,240.64 333.05,244.90 325.38,249.96 C319.27,253.99 315.39,255.85 304.67,259.87 C303.14,260.44 303.87,261.42 309.11,265.85 C313.54,269.60 315.99,271.02 317.44,270.67 C330.78,267.52 331.06,267.50 334.16,269.28 C336.05,270.36 339.30,271.00 342.96,271.00 C346.51,271.00 349.18,271.51 349.84,272.31 C350.62,273.25 350.47,277.50 349.30,287.60 L 347.68 301.59 L 352.77 306.68 C360.35,314.26 360.92,320.56 354.27,323.09 C352.99,323.57 351.70,324.76 351.40,325.73 C348.19,335.98 343.54,341.50 334.74,345.53 L 328.97 348.16 L 333.12 352.83 C335.40,355.40 337.89,358.96 338.65,360.75 C340.51,365.14 341.69,364.84 342.52,359.75 C345.14,343.89 359.71,330.20 377.47,326.92 C394.12,323.84 415.87,334.09 422.76,348.26 C426.65,356.27 428.91,365.26 428.96,372.88 C429.01,379.67 430.95,382.82 439.47,389.97 C443.06,392.98 446.00,395.73 446.00,396.09 C446.00,396.80 436.50,401.21 430.00,403.50 C427.57,404.36 421.96,405.04 416.87,405.09 C409.40,405.17 407.39,404.84 404.25,402.98 C401.18,401.17 399.62,400.89 395.51,401.42 C370.83,404.56 358.99,405.44 314.00,407.49 C279.73,409.05 203.98,409.28 168.50,407.93 ZM 411.34 394.90 C411.26,393.58 410.14,389.72 408.86,386.31 C407.59,382.91 406.85,379.82 407.22,379.45 C407.58,379.08 410.92,378.14 414.64,377.36 C418.35,376.59 421.62,375.71 421.91,375.42 C423.41,373.92 418.79,372.95 412.59,373.47 C401.84,374.36 401.00,374.72 401.01,378.36 C401.02,381.67 403.15,389.54 404.93,392.87 C407.75,398.14 411.64,399.37 411.34,394.90 ZM 216.69 395.41 L 219.64 394.82 L 217.32 390.24 C216.04,387.72 215.00,384.52 215.00,383.13 C215.00,380.60 215.00,380.60 218.75,384.14 C226.80,391.75 232.21,393.76 236.41,390.69 C238.08,389.47 237.97,389.18 234.79,386.39 C232.63,384.49 228.86,382.73 224.44,381.57 C220.62,380.56 217.14,379.41 216.70,379.02 C216.26,378.63 216.43,377.00 217.08,375.40 C220.89,365.96 223.00,360.06 223.00,358.84 C223.00,358.08 221.27,357.93 217.50,358.37 C211.86,359.03 209.69,357.62 214.50,356.41 C215.88,356.07 217.00,355.46 217.00,355.06 C217.00,354.19 203.97,351.69 203.24,352.43 C202.95,352.72 205.03,356.48 207.86,360.78 C210.69,365.09 213.00,369.62 213.00,370.86 C213.00,374.97 203.71,381.99 198.27,382.00 C195.34,382.00 194.16,380.90 185.83,370.50 C180.77,364.17 176.27,359.00 175.85,359.00 C174.39,359.00 167.90,365.28 166.45,368.10 C165.65,369.64 165.00,373.02 165.00,375.61 C165.00,385.90 174.89,392.49 194.00,394.92 C202.13,395.95 212.82,396.19 216.69,395.41 ZM 340.46 393.40 C344.01,389.85 346.95,377.90 344.98,375.00 C344.10,373.71 343.70,373.81 342.10,375.72 C341.07,376.93 339.92,379.61 339.53,381.67 C339.15,383.72 337.97,387.10 336.92,389.16 C335.86,391.23 335.00,393.39 335.00,393.96 C335.00,395.57 338.67,395.19 340.46,393.40 ZM 304.30 392.42 C317.60,388.98 321.00,385.33 321.00,374.53 C321.00,371.49 321.38,369.00 321.84,369.00 C322.98,369.00 324.94,375.60 325.25,380.50 L 325.50 384.50 L 327.25 381.30 C328.32,379.34 329.00,375.95 329.00,372.54 C329.00,354.89 311.84,344.36 286.51,346.47 C277.16,347.25 274.92,348.99 283.25,349.01 C288.48,349.02 297.20,350.89 300.41,352.69 C301.68,353.40 300.06,353.95 294.05,354.87 C285.57,356.17 279.65,358.18 276.77,360.73 C275.01,362.30 273.13,362.22 263.25,360.16 C260.91,359.67 259.00,359.63 259.00,360.07 C259.00,360.50 260.33,364.48 261.96,368.90 C263.73,373.70 264.53,377.17 263.95,377.53 C263.41,377.86 259.73,379.03 255.77,380.13 C247.36,382.46 247.25,382.40 244.42,373.40 C242.32,366.69 240.41,364.80 239.14,368.14 C238.64,369.44 237.51,372.24 236.62,374.37 C235.73,376.50 235.00,378.57 235.00,378.98 C235.00,379.71 250.55,387.18 254.64,388.42 C256.11,388.86 257.67,388.31 259.64,386.66 C263.86,383.12 272.19,378.00 273.73,378.00 C275.47,378.00 273.98,380.91 269.34,386.60 C267.51,388.86 266.00,390.98 266.00,391.32 C266.00,394.15 294.49,394.96 304.30,392.42 ZM 372.67 390.16 C373.03,388.78 374.80,388.01 379.65,387.12 C392.58,384.74 393.76,381.36 381.50,381.82 L 373.00 382.15 L 373.00 378.57 L 373.00 375.00 L 383.44 375.00 C389.37,375.00 394.15,374.56 394.50,373.99 C395.39,372.57 393.71,372.15 383.50,371.27 C375.06,370.55 374.48,370.35 374.17,368.13 C373.98,366.83 374.21,365.39 374.68,364.92 C375.15,364.45 379.66,364.50 384.72,365.02 C389.77,365.55 394.62,365.70 395.49,365.36 C399.19,363.95 395.68,362.42 385.96,361.20 C380.25,360.49 375.39,359.72 375.17,359.50 C374.94,359.28 375.05,357.95 375.39,356.56 C376.01,354.12 376.24,354.05 382.26,354.56 C385.69,354.84 389.89,355.25 391.59,355.45 C395.05,355.87 397.58,354.74 396.63,353.21 C396.28,352.65 393.64,351.90 390.75,351.56 C387.86,351.21 383.40,350.69 380.84,350.38 C376.19,349.84 376.19,349.83 377.06,346.78 C377.54,345.10 378.13,343.54 378.36,343.31 C378.59,343.08 382.40,343.63 386.84,344.53 C398.12,346.81 399.44,346.37 394.93,341.79 C389.84,336.61 382.03,334.44 374.29,336.04 C368.26,337.30 360.00,340.85 360.00,342.20 C360.00,342.64 362.93,343.00 366.52,343.00 L 373.04 343.00 L 372.38 345.75 C371.36,350.02 371.24,350.08 364.59,349.40 C360.43,348.97 357.56,349.17 356.05,349.97 C352.67,351.78 354.67,352.75 362.70,353.18 C366.65,353.39 370.10,353.77 370.36,354.03 C370.61,354.29 370.58,355.78 370.28,357.34 L 369.73 360.17 L 361.12 359.84 C354.01,359.56 352.50,359.76 352.50,360.99 C352.50,362.61 352.43,362.59 362.31,363.53 C368.96,364.16 369.11,364.23 368.81,366.84 C368.50,369.47 368.42,369.50 360.50,369.50 C354.06,369.50 352.50,369.79 352.50,371.00 C352.50,372.13 354.41,372.71 360.25,373.37 L 368.00 374.24 L 368.00 377.73 L 368.00 381.23 L 362.34 380.52 C359.23,380.13 356.08,379.58 355.34,379.30 C354.58,379.01 354.00,379.45 354.00,380.32 C354.00,382.75 358.58,385.71 363.49,386.45 C366.89,386.96 368.00,387.56 368.00,388.89 C368.00,392.33 371.83,393.37 372.67,390.16 ZM 112.36 387.40 C112.29,386.35 111.88,383.96 111.45,382.08 C110.80,379.19 110.93,378.76 112.27,379.27 C113.15,379.61 116.66,380.20 120.07,380.59 L 126.27 381.29 L 125.82 375.89 C125.37,370.47 121.74,361.48 118.28,357.20 C115.82,354.17 113.83,355.03 110.01,360.80 C103.68,370.36 103.00,379.97 108.14,387.20 C110.38,390.34 112.58,390.45 112.36,387.40 ZM 98.24 379.12 C97.82,373.18 98.10,371.49 100.30,366.87 C101.71,363.91 103.83,360.04 105.03,358.25 C107.56,354.45 106.91,354.24 101.49,357.10 C93.42,361.36 89.00,367.17 89.00,373.52 C89.00,377.93 90.36,380.80 93.84,383.75 C98.17,387.40 98.79,386.75 98.24,379.12 ZM 142.53 372.17 C141.10,363.69 130.93,353.25 125.01,354.18 C123.19,354.46 123.56,355.16 128.04,360.00 C130.84,363.02 134.30,367.52 135.74,370.00 C140.98,379.07 143.85,379.99 142.53,372.17 ZM 206.00 369.95 C206.00,367.86 200.59,359.36 189.15,343.50 C176.80,326.37 177.73,327.43 176.89,329.58 C175.40,333.39 174.23,331.51 198.68,364.75 C204.17,372.21 206.00,373.51 206.00,369.95 ZM 416.61 351.42 C416.27,350.55 416.00,349.42 416.00,348.92 C416.00,346.74 408.56,340.06 403.89,338.05 C401.10,336.85 398.57,336.09 398.29,336.38 C397.40,337.27 413.67,353.00 415.49,353.00 C416.65,353.00 417.02,352.48 416.61,351.42 ZM 125.75 345.48 C130.01,343.78 132.93,340.20 131.03,339.02 C128.94,337.73 125.02,339.18 122.49,342.20 C118.32,347.14 119.25,348.08 125.75,345.48 ZM 113.00 339.85 C113.00,338.32 112.07,336.21 110.93,335.15 C108.75,333.12 100.35,330.32 99.37,331.30 C97.38,333.29 104.61,343.78 109.00,345.26 C111.01,345.94 113.00,343.25 113.00,339.85 ZM 275.50 340.00 C275.84,339.45 275.98,339.00 275.81,338.99 C273.98,338.95 243.76,332.97 243.01,332.50 C242.45,332.16 242.00,330.33 242.00,328.44 C242.00,324.92 240.72,323.93 239.30,326.36 C238.86,327.11 236.84,329.70 234.80,332.11 C232.77,334.53 231.06,336.95 231.01,337.50 C230.96,338.05 233.75,339.01 237.21,339.63 C245.26,341.07 274.66,341.36 275.50,340.00 ZM 331.85 337.56 C339.29,333.66 343.87,325.46 342.55,318.42 C341.57,313.22 336.26,308.00 331.94,308.00 C328.71,308.00 322.00,312.10 322.00,314.07 C322.00,314.60 323.16,316.87 324.57,319.11 C325.99,321.36 326.92,323.42 326.64,323.69 C326.36,323.97 324.02,322.58 321.42,320.60 C318.83,318.62 316.37,317.00 315.95,317.00 C314.81,317.00 310.24,322.68 309.50,325.01 C307.98,329.79 312.79,337.18 318.62,339.01 C322.12,340.11 328.27,339.44 331.85,337.56 ZM 226.00 333.65 C229.02,330.73 232.53,327.21 233.79,325.82 L 236.08 323.29 L 232.41 318.89 C226.83,312.23 212.92,292.42 208.05,284.20 C202.94,275.59 200.65,274.95 200.23,282.01 C200.00,286.01 197.86,310.83 196.30,327.72 C195.74,333.86 195.77,333.96 198.62,335.09 C204.55,337.45 210.65,338.82 215.50,338.88 C220.21,338.94 220.82,338.64 226.00,333.65 ZM 163.72 332.33 C168.11,330.25 170.32,325.60 169.04,321.14 C167.63,316.22 159.99,307.15 156.20,305.90 C152.16,304.57 147.91,306.03 144.97,309.77 C142.06,313.46 142.55,316.99 146.85,323.59 C153.51,333.82 156.89,335.57 163.72,332.33 ZM 291.44 312.02 C291.82,302.95 292.21,295.46 292.32,295.36 C292.42,295.26 294.52,295.04 297.00,294.87 L 301.50 294.56 L 301.40 307.78 C301.35,315.05 301.68,321.00 302.13,321.00 C303.19,321.00 303.75,318.26 304.49,309.50 C304.82,305.65 305.35,300.55 305.67,298.16 C306.34,293.16 305.32,293.75 328.50,285.04 C341.88,280.01 347.62,277.00 343.84,277.00 C341.47,277.00 324.88,282.24 312.58,286.88 C296.92,292.78 297.18,292.77 281.33,288.22 C260.90,282.35 245.96,278.69 242.01,278.59 C238.91,278.51 238.40,278.87 237.44,281.82 L 236.35 285.14 L 232.44 280.32 C225.84,272.21 224.33,271.00 220.80,271.00 C215.78,270.99 208.00,274.08 208.00,276.09 C208.00,278.82 227.77,307.97 235.91,317.24 C237.89,319.50 238.58,319.76 239.80,318.75 C241.06,317.70 241.19,314.89 240.62,300.33 C240.25,290.88 240.30,282.93 240.72,282.67 C241.37,282.27 268.41,288.71 283.75,292.91 L 288.00 294.08 L 288.00 311.87 C288.00,321.66 288.31,329.98 288.69,330.36 C290.18,331.84 290.77,327.90 291.44,312.02 ZM 179.51 314.98 C180.57,311.64 179.03,307.17 175.55,303.48 C172.97,300.75 171.48,300.00 168.63,300.00 C166.63,300.00 165.00,300.24 165.00,300.53 C165.00,300.82 166.83,303.37 169.06,306.20 C171.29,309.02 173.78,312.61 174.59,314.17 C176.30,317.48 178.59,317.86 179.51,314.98 ZM 190.97 307.75 C191.92,305.46 194.00,290.67 194.00,286.26 C194.00,283.11 193.29,283.45 186.56,289.84 L 180.93 295.18 L 183.90 299.67 C185.54,302.13 187.16,305.47 187.52,307.08 C188.28,310.57 189.69,310.84 190.97,307.75 ZM 152.50 295.36 C152.50,293.83 142.52,283.00 141.11,283.00 C138.72,283.00 140.19,287.46 144.14,292.16 C147.08,295.68 148.88,297.02 150.39,296.80 C151.55,296.64 152.50,295.99 152.50,295.36 ZM 310.00 285.32 C315.77,282.54 323.32,279.45 326.77,278.44 C333.89,276.36 334.44,274.46 327.90,274.58 C319.58,274.73 301.85,283.68 298.88,289.22 C298.29,290.33 298.18,291.04 298.65,290.80 C299.12,290.56 304.23,288.09 310.00,285.32 ZM 289.40 286.85 C286.83,283.94 275.03,278.55 265.51,275.94 C258.97,274.15 257.36,274.01 255.37,275.07 C254.06,275.77 253.00,276.60 253.00,276.92 C253.00,277.24 257.39,278.56 262.75,279.85 C268.11,281.15 276.55,283.69 281.50,285.51 C286.45,287.33 290.68,288.86 290.90,288.91 C291.13,288.96 290.45,288.03 289.40,286.85 ZM 133.51 280.35 C139.07,276.65 142.00,274.06 142.00,272.85 C142.00,269.32 138.87,270.39 127.75,277.71 C123.30,280.64 121.00,282.81 121.00,284.08 C121.00,287.37 124.56,286.31 133.51,280.35 ZM 301.45 280.56 C307.04,275.63 307.02,275.51 299.62,270.19 L 295.15 266.99 L 292.53 272.70 C291.09,275.85 290.05,279.33 290.21,280.44 C290.45,282.11 294.20,285.03 296.00,284.95 C296.27,284.93 298.73,282.96 301.45,280.56 ZM 287.84 273.61 C288.98,271.20 290.20,268.03 290.57,266.58 C291.23,263.96 291.20,263.94 286.87,264.60 C275.02,266.40 268.61,267.96 267.19,269.38 C266.33,270.25 265.84,271.17 266.11,271.45 C266.90,272.24 282.34,277.75 284.14,277.88 C285.16,277.95 286.56,276.33 287.84,273.61 ZM 124.94 260.58 C122.25,256.69 117.08,249.23 113.44,244.00 C109.81,238.77 106.31,233.71 105.68,232.75 C104.13,230.42 102.29,230.54 98.32,233.25 C92.79,237.02 94.22,239.49 100.15,236.42 C102.99,234.95 103.29,234.97 104.54,236.67 C105.28,237.68 110.14,244.57 115.35,252.00 C128.97,271.43 128.14,270.40 129.04,268.93 C129.54,268.13 128.03,265.05 124.94,260.58 ZM 263.21 259.52 C275.54,257.98 285.35,255.98 293.25,253.40 C298.55,251.66 298.51,251.80 296.63,242.00 L 295.39 235.50 L 290.44 235.57 C281.63,235.70 234.03,239.57 223.00,241.06 C218.88,241.61 210.21,242.34 203.75,242.67 C190.71,243.34 190.60,243.42 193.42,250.13 C195.85,255.90 199.91,258.92 206.57,259.89 C216.49,261.34 250.43,261.12 263.21,259.52 ZM 189.75 254.75 C189.50,254.06 188.51,251.13 187.56,248.23 C186.15,243.94 185.14,242.60 182.16,241.08 C177.60,238.75 175.90,236.84 172.69,230.43 C169.18,223.43 166.95,214.20 166.28,203.95 C165.51,192.06 167.51,185.77 174.13,179.28 C179.65,173.86 179.76,173.22 177.65,158.05 L 176.48 149.61 L 173.24 153.69 C166.10,162.71 161.75,174.81 160.55,189.00 C159.79,197.90 161.30,216.08 163.49,224.50 C167.08,238.33 174.66,249.15 184.00,253.77 C189.13,256.31 190.41,256.53 189.75,254.75 ZM 313.24 245.79 C316.55,244.03 321.78,240.20 324.86,237.29 L 330.45 232.00 L 326.86 229.04 C319.86,223.27 315.00,208.29 315.00,192.48 C315.00,177.39 318.30,167.77 324.64,164.36 C326.49,163.36 328.00,162.27 328.00,161.93 C328.00,160.17 317.50,146.74 312.86,142.56 C306.18,136.55 303.59,135.26 301.55,136.96 C298.18,139.76 292.17,155.71 292.04,162.23 C292.01,163.26 293.60,164.78 295.95,165.97 C304.55,170.36 309.02,178.07 311.06,192.01 C312.50,201.88 311.82,218.11 309.74,223.07 C308.36,226.39 303.57,231.31 300.84,232.22 C299.87,232.54 299.89,234.21 300.93,240.06 C301.65,244.15 302.44,247.84 302.68,248.25 C303.58,249.79 307.40,248.90 313.24,245.79 ZM 209.28 231.59 C217.45,228.01 224.00,217.74 224.00,208.50 C224.00,200.23 218.40,190.49 211.23,186.29 C200.25,179.85 187.07,184.57 180.26,197.37 C177.75,202.09 178.00,214.33 180.70,219.51 C186.51,230.62 199.22,236.00 209.28,231.59 ZM 284.72 224.45 C291.05,221.30 294.79,216.53 296.71,209.18 C299.12,199.94 296.34,190.07 289.41,183.35 C284.50,178.58 279.72,176.70 272.41,176.66 C261.55,176.60 253.03,183.60 250.36,194.77 C248.92,200.80 249.72,207.48 252.55,213.00 C254.70,217.20 260.24,222.18 265.50,224.64 C272.16,227.76 278.21,227.70 284.72,224.45 ZM 349.00 220.04 C349.00,219.52 347.88,217.43 346.50,215.41 C342.62,209.68 341.50,204.46 341.50,192.00 C341.50,181.62 341.73,180.13 343.89,176.66 L 346.27 172.83 L 343.89 173.16 C339.57,173.77 337.50,179.88 337.50,192.00 C337.50,204.35 339.09,211.45 343.10,216.98 C345.77,220.67 349.00,222.35 349.00,220.04 ZM 147.20 209.75 C148.44,208.77 148.89,205.74 149.28,195.74 C149.57,188.61 149.39,182.74 148.89,182.43 C146.96,181.24 143.88,183.32 141.95,187.10 C139.46,191.98 138.17,205.59 139.90,208.82 C141.20,211.25 144.73,211.70 147.20,209.75 ZM 333.13 189.00 C333.48,184.32 334.25,178.48 334.84,176.00 C335.68,172.46 335.62,171.21 334.57,170.15 C331.69,167.25 327.12,171.99 324.52,180.56 C322.97,185.68 322.47,196.13 323.71,197.38 C324.11,197.77 326.24,197.96 328.46,197.80 L 332.50 197.50 L 333.13 189.00 ZM 189.73 170.53 C196.04,168.08 207.82,165.28 221.50,162.99 C235.58,160.62 265.79,159.75 279.65,161.30 L 286.81 162.10 L 287.52 157.80 C288.49,151.95 292.55,141.31 295.54,136.77 C296.89,134.72 298.00,132.78 298.00,132.46 C298.00,131.33 285.43,126.27 277.50,124.19 C253.74,117.98 229.51,119.23 208.09,127.76 C200.23,130.89 190.90,136.22 186.87,139.86 C182.84,143.51 181.33,152.15 182.90,162.66 C183.96,169.83 184.58,172.00 185.54,172.00 C185.77,172.00 187.66,171.34 189.73,170.53 ZM 240.53 84.97 C244.04,81.09 239.89,75.06 234.62,76.38 C233.14,76.75 231.43,78.15 230.82,79.49 C228.24,85.17 236.25,89.69 240.53,84.97 ZM 377.65 214.17 C375.50,211.79 375.56,209.71 377.83,207.65 C380.42,205.31 383.70,205.61 385.50,208.36 C389.04,213.76 382.00,218.97 377.65,214.17 ZM 393.04 214.07 C391.54,211.27 391.75,209.53 393.83,207.65 C396.47,205.27 399.70,205.62 401.59,208.50 C403.11,210.82 403.11,211.18 401.59,213.50 C399.54,216.63 394.58,216.96 393.04,214.07 ZM 139.53 143.65 C138.76,142.47 137.83,140.26 137.46,138.74 C136.85,136.27 137.15,135.83 140.49,134.44 C146.07,132.11 148.27,132.81 149.32,137.26 C150.52,142.38 149.86,143.54 145.05,144.76 C141.31,145.71 140.79,145.61 139.53,143.65 ZM 135.04 128.07 C132.69,123.68 133.81,119.80 139.66,112.11 C144.89,105.22 143.52,100.00 136.46,100.00 C129.45,100.00 122.59,105.88 124.33,110.41 C125.00,112.16 123.40,113.61 119.83,114.51 C116.33,115.38 114.59,112.32 115.25,106.44 C116.15,98.46 122.85,92.53 133.81,90.00 C139.35,88.72 145.50,89.66 149.12,92.34 C152.09,94.53 154.99,100.44 155.00,104.30 C155.00,109.10 153.23,112.46 148.08,117.45 C145.23,120.21 144.00,122.24 144.00,124.19 C144.00,126.44 143.31,127.26 140.38,128.49 C135.91,130.35 136.28,130.38 135.04,128.07 ZM 202.26 223.36 C193.51,219.05 191.55,204.25 198.84,197.64 C201.88,194.89 208.60,194.33 212.62,196.50 C216.62,198.65 220.00,205.03 220.00,210.43 C220.00,215.45 216.46,221.55 212.44,223.46 C208.37,225.39 206.34,225.37 202.26,223.36 ZM 259.90 217.89 C256.24,213.98 256.01,209.28 259.31,206.17 C264.18,201.60 271.68,205.23 272.68,212.64 C273.13,215.98 272.83,217.17 271.12,218.88 C267.94,222.06 263.42,221.66 259.90,217.89 Z" fill="var(--icon-color)"/>
</g>
</svg>