<svg xmlns="http://www.w3.org/2000/svg" width="500" height="500" viewBox="0 0 500 500">
<g>
<path d="M 195.50 429.41 C149.43,427.97 105.09,422.87 95.92,417.96 C92.61,416.19 93.59,413.38 98.16,411.55 C104.40,409.06 127.26,405.00 135.09,405.00 C138.10,405.00 139.60,404.25 142.67,401.20 C144.78,399.11 149.30,395.00 152.72,392.07 L 158.95 386.75 L 156.54 384.86 C155.22,383.82 153.20,381.44 152.05,379.58 C150.24,376.65 150.09,375.58 150.95,371.84 C152.10,366.85 157.46,348.32 158.48,345.81 C159.00,344.53 158.19,343.63 155.11,342.06 C152.88,340.92 149.47,338.59 147.53,336.89 C142.18,332.20 142.56,328.11 149.50,315.55 C152.52,310.07 155.00,305.44 155.00,305.25 C155.00,305.07 154.10,303.95 153.00,302.77 C151.90,301.59 151.00,300.06 151.00,299.37 C151.00,298.13 153.53,293.24 161.53,279.00 C163.84,274.88 167.67,267.90 170.02,263.50 C183.03,239.21 186.18,234.99 194.19,231.14 C197.94,229.34 199.88,227.93 198.99,227.65 C187.37,223.92 183.87,222.54 178.42,219.49 C170.82,215.24 163.30,207.90 160.21,201.70 C158.41,198.10 156.87,196.68 152.39,194.49 C146.27,191.49 141.86,185.88 139.86,178.52 C138.40,173.16 139.40,156.82 141.57,150.61 C143.76,144.35 149.53,138.50 154.41,137.58 C157.16,137.07 158.35,136.21 159.11,134.21 C161.23,128.64 163.52,124.29 167.78,117.75 C179.68,99.49 203.87,88.04 234.10,86.35 C247.42,85.61 247.49,85.56 249.55,75.75 C250.80,69.76 250.14,68.19 248.18,72.50 C246.70,75.75 245.88,75.65 242.13,71.82 C236.55,66.12 236.71,57.49 242.49,51.71 C249.81,44.39 261.66,44.56 268.44,52.07 C272.45,56.50 273.49,59.60 272.67,64.66 C271.81,69.95 269.65,72.54 264.00,75.10 L 258.91 77.40 L 259.20 81.88 L 259.50 86.35 L 268.50 88.10 C299.66,94.14 320.80,107.47 329.68,126.68 C331.51,130.64 333.00,134.76 333.00,135.86 C333.00,137.27 334.08,138.20 336.75,139.06 C344.82,141.68 350.70,148.21 353.64,157.84 C355.72,164.66 356.00,179.61 354.17,185.81 C351.82,193.74 342.07,201.92 334.89,201.98 C333.20,201.99 329.67,204.13 324.91,208.01 C317.40,214.13 305.83,220.35 296.08,223.51 L 290.67 225.27 L 299.73 228.51 C325.66,237.77 348.01,256.33 355.68,274.98 C359.46,284.16 358.58,298.18 353.62,307.76 C352.78,309.40 350.45,312.88 348.45,315.50 C345.60,319.23 345.10,320.46 346.16,321.15 C348.78,322.88 394.62,345.65 402.00,348.89 C410.92,352.81 412.21,354.11 410.88,357.92 C409.67,361.39 403.27,367.55 400.08,368.32 C395.95,369.31 354.86,354.31 334.59,344.41 C332.99,343.63 331.46,343.21 331.19,343.47 C330.93,343.74 333.28,348.00 336.41,352.95 C339.55,357.90 343.51,364.64 345.20,367.93 C348.18,373.71 348.23,374.00 346.60,376.49 C345.67,377.91 342.46,380.27 339.46,381.74 C336.45,383.21 334.00,384.81 334.00,385.29 C334.00,385.78 335.31,388.05 336.91,390.34 C338.51,392.63 340.99,396.41 342.42,398.75 C344.99,402.94 345.10,403.00 350.69,403.00 C356.87,403.00 368.36,404.21 385.44,406.65 C415.58,410.95 420.62,416.88 397.96,421.38 C383.33,424.28 375.44,425.17 339.00,428.08 C326.33,429.08 217.41,430.10 195.50,429.41 ZM 345.25 417.68 C347.43,416.76 349.00,415.41 349.00,414.45 C349.00,410.11 334.24,401.19 325.57,400.30 C313.66,399.07 294.20,408.65 297.56,414.09 C298.58,415.75 304.83,418.15 310.50,419.07 C318.63,420.39 340.92,419.50 345.25,417.68 ZM 188.63 411.51 C190.48,410.74 192.00,409.71 192.00,409.23 C192.00,406.57 179.91,399.43 171.50,397.11 C162.61,394.67 154.58,397.13 145.81,404.98 C141.78,408.59 141.61,408.96 143.16,410.55 C144.08,411.49 147.42,412.61 150.66,413.06 C159.19,414.25 184.54,413.22 188.63,411.51 ZM 270.00 400.57 C270.00,398.55 267.73,395.00 266.44,395.00 C265.56,395.00 261.42,393.82 257.24,392.38 C249.74,389.79 249.57,389.78 243.04,391.35 C239.41,392.23 233.31,393.39 229.49,393.93 C224.91,394.58 222.10,395.51 221.27,396.65 C218.16,400.90 218.72,401.00 245.00,401.00 C258.75,401.00 270.00,400.80 270.00,400.57 ZM 288.50 390.01 C295.33,388.90 312.01,383.99 311.98,383.09 C311.98,382.77 308.58,380.26 304.43,377.52 C300.29,374.79 296.18,371.75 295.29,370.77 C292.41,367.58 295.85,368.82 302.31,373.29 C305.71,375.65 310.20,378.56 312.27,379.77 L 316.04 381.96 L 321.52 379.45 C324.53,378.07 327.00,376.72 327.00,376.44 C327.00,376.17 324.05,371.39 320.44,365.83 C308.28,347.10 292.14,327.00 289.25,327.00 C286.39,327.00 279.04,321.98 277.48,318.96 C275.94,315.98 274.58,315.25 273.57,316.89 C273.27,317.37 274.53,321.08 276.38,325.14 C278.23,329.19 280.04,333.85 280.42,335.50 C281.01,338.12 280.66,337.86 277.69,333.50 C271.19,323.99 265.09,318.00 261.91,318.00 C260.31,318.00 259.00,318.18 259.00,318.40 C259.00,318.61 260.63,322.23 262.63,326.43 C264.62,330.64 266.05,334.28 265.80,334.54 C265.54,334.79 263.82,332.86 261.96,330.25 C260.10,327.64 256.98,324.04 255.04,322.25 C251.56,319.06 251.37,319.01 244.50,319.63 C240.65,319.98 237.41,320.33 237.30,320.42 C237.18,320.50 238.87,323.39 241.05,326.83 C244.95,332.99 249.00,340.44 249.00,341.43 C249.00,342.15 232.80,347.00 230.37,347.00 C228.64,347.00 227.71,345.00 224.07,333.50 C218.60,316.18 217.60,315.88 213.11,330.25 C208.60,344.66 208.43,345.00 205.56,345.00 C203.07,345.00 192.18,341.37 190.73,340.06 C189.88,339.29 194.58,329.96 199.23,323.18 C200.86,320.80 202.04,318.72 201.85,318.54 C201.66,318.37 199.66,317.93 197.42,317.56 C193.59,316.92 193.12,317.12 189.81,320.79 C187.86,322.94 184.36,328.48 182.03,333.10 C178.97,339.16 177.98,340.53 178.46,338.00 C179.30,333.60 182.82,324.45 185.19,320.50 C187.55,316.56 187.47,315.36 184.77,314.65 C178.49,313.01 169.40,330.89 161.59,360.25 C158.09,373.42 158.16,377.12 161.99,380.34 C168.13,385.51 191.74,389.79 200.77,387.36 C202.78,386.83 202.33,386.34 196.98,383.17 C190.70,379.45 178.24,367.43 179.43,366.24 C179.80,365.86 180.43,366.08 180.82,366.71 C182.12,368.81 193.20,374.92 198.39,376.39 C205.42,378.39 223.09,379.01 222.93,377.25 C222.89,376.84 219.29,374.75 214.91,372.60 C210.54,370.46 207.19,368.48 207.46,368.21 C207.73,367.93 211.35,368.29 215.50,369.00 C219.65,369.71 223.20,370.11 223.39,369.90 C223.58,369.68 222.23,366.35 220.39,362.50 C216.29,353.90 216.05,351.40 219.84,356.60 C224.12,362.47 235.99,373.26 244.20,378.75 C260.57,389.69 272.25,392.66 288.50,390.01 ZM 335.82 371.67 C336.65,367.40 324.09,346.67 314.49,336.47 C308.59,330.21 308.10,330.71 313.48,337.50 C320.90,346.84 331.00,363.26 331.00,365.96 C331.00,366.53 330.28,367.00 329.40,367.00 C328.18,367.00 328.48,367.81 330.65,370.42 C333.66,374.03 335.29,374.43 335.82,371.67 ZM 401.56 361.48 C403.42,360.04 403.39,359.99 400.92,360.55 C396.69,361.50 372.51,351.48 340.05,335.32 C328.80,329.71 319.24,325.35 318.80,325.62 C316.76,326.88 322.35,331.47 331.00,335.64 C355.82,347.59 369.14,353.30 387.00,359.62 C397.81,363.44 398.88,363.58 401.56,361.48 ZM 163.50 329.45 C163.50,326.30 163.87,325.12 164.74,325.45 C165.43,325.72 166.66,324.62 167.49,323.02 C168.96,320.18 168.91,320.04 165.75,317.67 C158.83,312.49 157.22,313.00 153.03,321.74 C150.34,327.35 150.47,329.19 153.75,332.48 C159.68,338.43 163.50,337.24 163.50,329.45 ZM 313.73 317.82 C320.67,313.62 324.25,304.54 322.06,296.72 C319.14,286.29 307.35,280.37 293.61,282.43 C286.45,283.51 283.38,288.05 288.50,290.00 C289.88,290.52 291.00,291.44 291.00,292.03 C291.00,292.62 289.20,296.09 287.00,299.74 C281.79,308.39 281.60,315.00 286.57,315.00 C289.38,315.00 295.49,309.89 297.62,305.76 C298.46,304.14 299.40,303.07 299.71,303.38 C300.43,304.10 298.18,309.73 295.76,313.24 C294.72,314.75 294.18,316.49 294.56,317.10 C295.90,319.26 302.20,317.21 306.31,313.28 L 310.27 309.50 L 307.56 314.22 C303.49,321.30 305.78,322.63 313.73,317.82 ZM 346.66 303.00 C349.12,298.18 349.46,296.39 349.45,288.50 C349.44,281.63 349.00,278.67 347.57,276.00 C340.64,263.07 324.61,247.98 309.30,239.99 L 303.11 236.75 L 299.90 238.63 C291.22,243.70 289.72,258.50 297.02,267.16 L 299.83 270.50 L 303.54 267.00 C305.58,265.08 308.12,261.70 309.19,259.50 L 311.14 255.50 L 310.57 260.37 C310.03,265.04 310.09,265.21 312.25,264.58 C317.13,263.16 324.73,262.76 325.42,263.87 C325.86,264.58 325.30,265.00 323.93,265.00 C319.36,265.00 313.61,267.53 309.28,271.44 L 304.80 275.50 L 312.53 275.17 C330.00,274.41 340.72,284.36 341.80,302.32 C342.05,306.62 342.62,309.77 343.06,309.32 C343.50,308.87 345.12,306.02 346.66,303.00 ZM 225.00 308.05 C225.00,306.84 220.64,306.14 210.79,305.76 C201.97,305.42 202.64,306.49 212.09,307.84 C220.95,309.10 225.00,309.17 225.00,308.05 ZM 267.81 304.68 C273.03,299.66 278.00,288.79 278.00,282.40 C278.00,278.04 277.63,276.87 275.93,275.96 C274.33,275.10 273.33,275.21 271.43,276.45 C268.38,278.45 268.37,278.84 271.40,278.26 C277.90,277.02 273.88,292.06 265.47,300.47 C261.50,304.43 260.51,304.73 259.17,302.34 C258.34,300.86 258.16,300.91 257.56,302.80 C257.19,303.97 257.40,305.88 258.03,307.05 C259.54,309.88 263.36,308.96 267.81,304.68 ZM 177.20 302.25 C177.31,299.09 177.27,294.49 177.12,292.04 C176.82,287.03 178.26,278.18 181.19,267.00 C185.54,250.43 186.14,247.81 185.74,247.41 C185.34,247.01 179.96,256.53 171.25,273.00 C169.08,277.12 165.33,284.18 162.93,288.68 L 158.56 296.87 L 161.40 299.18 C164.48,301.71 175.04,307.97 176.25,307.99 C176.66,307.99 177.09,305.41 177.20,302.25 ZM 251.76 300.75 C252.31,300.06 253.05,298.54 253.41,297.37 C253.97,295.53 252.97,294.63 245.90,290.62 C241.41,288.08 237.38,286.00 236.94,286.00 C236.49,286.00 233.40,284.82 230.07,283.37 C224.06,280.76 224.00,280.70 223.99,276.62 L 223.98 272.50 L 220.21 276.50 C212.22,284.99 203.14,298.47 204.50,299.84 C206.62,301.96 250.12,302.80 251.76,300.75 ZM 203.68 292.21 C212.31,278.33 231.61,257.62 246.00,246.79 C252.26,242.08 262.77,235.00 263.50,235.00 C263.83,235.00 265.77,233.83 267.80,232.40 C270.96,230.17 271.13,229.87 269.00,230.32 C267.62,230.62 261.91,231.17 256.31,231.55 C246.44,232.23 245.95,232.38 240.81,236.23 C224.53,248.43 212.65,260.58 199.67,278.29 C194.64,285.15 188.00,295.51 188.00,296.49 C188.00,297.18 194.17,298.81 197.00,298.87 C199.02,298.91 200.29,297.64 203.68,292.21 ZM 190.06 285.25 C192.45,281.54 196.50,275.79 199.05,272.47 L 203.71 266.43 L 201.21 260.97 C198.26,254.53 196.09,246.01 196.04,240.74 C196.00,237.27 195.85,237.08 194.05,238.20 C192.94,238.89 191.66,241.38 191.07,243.96 C186.13,265.84 183.05,292.00 185.42,292.00 C185.59,292.00 187.67,288.96 190.06,285.25 ZM 266.00 287.96 C266.00,285.91 265.22,285.60 262.58,286.61 C261.01,287.21 260.43,290.09 261.63,291.30 C262.77,292.44 266.00,289.97 266.00,287.96 ZM 256.43 285.67 C259.06,283.75 257.71,279.55 254.93,281.04 C253.82,281.63 253.00,283.12 253.00,284.54 C253.00,287.32 253.81,287.59 256.43,285.67 ZM 247.80 280.80 C248.46,280.14 249.00,278.61 249.00,277.39 C249.00,275.67 248.56,275.30 246.98,275.71 C244.38,276.39 243.72,277.54 244.50,280.01 C245.23,282.29 246.10,282.50 247.80,280.80 ZM 238.11 276.78 C239.30,274.46 240.63,271.31 241.06,269.78 C241.93,266.76 241.03,265.88 235.77,264.63 C233.29,264.03 232.83,264.40 230.65,268.74 C226.46,277.09 226.46,277.56 230.72,279.33 C235.87,281.47 235.69,281.53 238.11,276.78 ZM 264.06 274.43 C266.86,271.06 273.14,268.75 277.78,269.38 C281.71,269.92 282.13,269.79 281.54,268.25 C280.49,265.51 277.92,252.74 278.34,252.33 C278.54,252.12 280.51,254.69 282.70,258.03 L 286.70 264.10 L 287.30 256.30 C288.05,246.80 289.36,242.64 293.15,237.78 L 296.05 234.05 L 293.28 233.44 C291.75,233.11 289.20,232.42 287.60,231.92 C280.53,229.68 274.47,231.95 257.84,243.05 C241.47,253.98 233.73,261.00 238.03,261.00 C238.54,261.00 244.02,264.36 250.22,268.47 C256.43,272.58 261.78,275.95 262.13,275.97 C262.47,275.99 263.34,275.29 264.06,274.43 ZM 213.86 245.54 C212.29,242.22 211.00,238.06 211.00,236.31 C211.00,234.55 210.66,232.92 210.25,232.68 C209.84,232.44 207.36,232.88 204.75,233.65 L 200.00 235.06 L 200.00 241.40 C200.00,247.63 201.23,252.47 204.64,259.65 L 206.35 263.26 L 211.53 257.42 L 216.71 251.58 L 213.86 245.54 ZM 271.50 220.66 C287.22,217.63 286.25,218.01 285.56,215.11 C285.21,213.67 284.40,209.20 283.76,205.17 L 282.58 197.83 L 278.04 198.43 C275.54,198.76 259.10,199.28 241.50,199.59 C216.44,200.04 206.79,199.84 197.00,198.66 C190.12,197.84 183.71,196.86 182.75,196.48 C181.36,195.93 181.00,196.31 181.00,198.36 C181.00,202.15 184.95,212.05 187.48,214.57 C190.06,217.15 197.81,219.56 209.84,221.52 C221.36,223.40 260.09,222.85 271.50,220.66 ZM 297.66 213.79 C303.84,211.45 313.02,206.42 317.03,203.18 L 319.43 201.23 L 316.27 198.57 C309.38,192.78 305.99,183.24 306.01,169.70 C306.03,158.19 310.30,145.51 315.03,142.98 C316.14,142.39 316.83,141.54 316.56,141.10 C316.29,140.66 311.22,139.74 305.28,139.05 C299.35,138.36 293.38,137.61 292.00,137.39 C284.57,136.18 243.05,134.01 227.50,134.02 C211.92,134.02 185.81,135.77 178.00,137.33 C164.19,140.08 164.06,140.13 162.88,143.91 C162.27,145.88 161.54,153.84 161.27,161.59 C160.49,184.30 164.37,198.04 174.16,207.24 C176.94,209.85 179.64,211.72 180.16,211.40 C180.74,211.04 180.74,210.38 180.14,209.66 C179.61,209.02 178.61,205.57 177.92,202.00 C176.97,197.13 175.92,194.77 173.70,192.57 C167.89,186.85 166.59,182.08 166.58,166.50 C166.57,154.56 166.86,151.92 168.53,148.59 C171.57,142.55 174.23,141.19 186.50,139.40 C201.16,137.26 256.12,137.23 272.92,139.36 C279.20,140.16 284.92,140.58 285.63,140.31 C286.96,139.80 292.51,143.23 294.77,145.96 C300.00,152.27 303.11,168.91 301.15,180.05 C299.66,188.51 297.39,192.04 291.60,194.92 L 286.74 197.34 L 287.34 203.42 C287.94,209.59 289.87,216.00 291.13,216.00 C291.51,216.00 294.45,215.01 297.66,213.79 ZM 343.34 192.55 C343.71,191.58 343.42,191.29 342.44,191.66 C340.20,192.52 336.17,189.35 334.54,185.45 C331.81,178.90 330.86,170.66 332.01,163.45 C333.31,155.33 335.26,151.29 338.64,149.75 C340.92,148.72 340.99,148.52 339.34,147.94 C336.30,146.86 333.22,149.01 330.85,153.89 C328.95,157.79 328.60,160.20 328.56,169.50 C328.51,181.48 329.64,186.22 333.67,191.03 C335.52,193.22 337.04,194.00 339.48,194.00 C341.44,194.00 343.01,193.41 343.34,192.55 ZM 271.49 188.57 C279.95,185.03 284.89,178.68 286.45,169.33 C287.46,163.28 286.17,156.47 283.44,153.53 C281.26,151.17 280.46,151.00 271.83,151.00 C260.28,151.00 251.86,153.48 243.50,159.36 C237.66,163.46 237.49,163.71 237.21,168.56 C236.61,178.66 242.64,186.40 253.99,190.13 C257.39,191.24 267.19,190.37 271.49,188.57 ZM 203.88 185.70 C209.07,182.27 213.25,173.95 212.81,167.94 C212.33,161.30 210.50,162.12 210.50,168.98 C210.50,174.40 210.19,175.27 207.23,178.23 C204.43,181.04 203.26,181.50 199.05,181.50 C194.96,181.50 193.61,181.00 191.04,178.54 C186.84,174.51 185.32,169.21 186.88,164.00 C188.34,159.12 191.71,156.73 197.10,156.73 C201.93,156.73 201.31,156.03 193.89,153.10 C190.10,151.60 186.69,150.98 183.39,151.19 C178.93,151.47 178.35,151.80 176.75,155.00 C174.35,159.80 174.42,171.14 176.88,176.50 C179.05,181.24 183.34,185.75 187.50,187.65 C191.88,189.67 199.21,188.79 203.88,185.70 ZM 323.39 167.14 C323.67,165.69 324.20,162.48 324.57,160.00 C324.95,157.52 326.33,153.06 327.65,150.07 C329.52,145.85 329.76,144.47 328.77,143.84 C325.27,141.62 319.86,144.63 317.21,150.28 C314.74,155.53 313.17,163.59 313.97,166.91 C315.08,171.55 322.52,171.74 323.39,167.14 ZM 155.33 159.25 C155.65,153.89 156.22,148.23 156.59,146.67 C157.22,144.02 157.08,143.86 154.38,144.17 C150.62,144.60 147.27,151.10 146.37,159.74 C145.60,167.06 146.68,169.00 151.49,169.00 L 154.73 169.00 L 155.33 159.25 ZM 204.04 165.45 C205.10,164.17 205.05,163.62 203.76,162.33 C201.94,160.51 200.00,161.32 200.00,163.89 C200.00,167.17 201.98,167.93 204.04,165.45 ZM 175.50 131.79 C177.70,131.20 185.57,129.45 193.00,127.89 L 206.50 125.05 L 191.75 125.53 C168.61,126.28 172.59,123.67 205.50,116.51 L 212.50 114.99 L 201.91 115.48 C192.79,115.89 180.84,117.71 174.73,119.60 C173.04,120.12 167.00,130.67 167.00,133.09 C167.00,133.81 167.83,133.98 169.25,133.55 C170.49,133.17 173.30,132.38 175.50,131.79 ZM 317.05 119.09 C314.00,113.39 296.98,102.00 291.51,102.00 C287.83,102.00 282.87,104.48 279.48,108.02 C276.24,111.40 275.46,110.97 290.00,113.88 C295.77,115.04 303.88,117.07 308.00,118.40 C317.61,121.48 318.36,121.53 317.05,119.09 ZM 188.90 111.52 C206.00,108.51 230.21,107.50 251.98,108.90 L 272.09 110.19 L 276.80 105.84 C279.38,103.45 282.62,100.77 283.98,99.89 L 286.47 98.28 L 280.98 96.72 C268.14,93.08 263.28,92.53 244.50,92.57 C222.59,92.61 213.88,94.02 199.07,99.94 C192.84,102.43 181.31,109.75 180.57,111.69 C180.29,112.41 180.16,113.00 180.28,113.00 C180.40,113.00 184.28,112.33 188.90,111.52 ZM 262.43 61.43 C265.99,57.87 262.31,52.00 256.51,52.00 C250.66,52.00 248.97,57.26 253.63,60.93 C256.77,63.40 260.26,63.59 262.43,61.43 ZM 390.04 167.27 C381.33,165.63 372.00,159.97 361.50,149.94 C353.62,142.42 348.39,138.88 341.92,136.70 C337.76,135.29 337.37,134.84 335.36,129.01 C334.19,125.61 332.71,122.31 332.09,121.69 C330.61,120.21 339.26,118.10 347.06,118.04 C358.58,117.95 378.87,110.95 390.67,102.99 C396.89,98.79 397.70,99.78 396.16,109.69 C394.70,119.07 393.36,121.28 387.16,124.42 C377.12,129.51 364.36,131.11 350.09,129.09 C347.12,128.66 343.29,128.61 341.59,128.97 C338.87,129.55 339.18,129.71 344.24,130.32 C352.21,131.29 358.36,133.49 366.30,138.23 C376.59,144.37 388.21,147.91 400.59,148.67 C407.11,149.07 411.00,149.71 410.99,150.40 C410.98,151.56 404.99,159.45 402.17,162.02 C398.42,165.42 394.66,167.99 393.62,167.86 C393.00,167.79 391.39,167.52 390.04,167.27 ZM 252.50 181.05 C249.73,179.90 246.35,176.07 245.03,172.58 C241.54,163.38 251.25,154.47 262.10,156.91 C267.62,158.15 271.27,160.95 272.37,164.78 C275.20,174.68 262.41,185.15 252.50,181.05 ZM 265.00 163.95 C265.00,161.33 263.07,160.50 261.24,162.33 C259.98,163.59 259.91,164.19 260.91,165.39 C262.47,167.27 265.00,166.38 265.00,163.95 Z" fill="var(--icon-color)"/>
</g>
</svg>