<svg xmlns="http://www.w3.org/2000/svg" width="500" height="500" viewBox="0 0 500 500">
<g>
<path d="M 178.90 438.46 C128.83,436.53 101.23,434.40 81.43,430.97 C64.96,428.11 58.80,424.82 63.49,421.38 C65.68,419.78 73.77,417.39 80.08,416.48 C86.94,415.49 87.57,414.87 86.27,410.33 C85.66,408.22 84.86,404.57 84.49,402.22 C83.72,397.32 84.74,395.63 95.23,384.42 L 101.21 378.03 L 100.04 373.19 C98.52,366.81 99.73,361.95 106.70,346.50 C111.06,336.83 112.31,332.85 113.12,326.00 C114.36,315.47 115.24,313.41 124.93,298.50 C129.21,291.90 136.46,280.20 141.03,272.50 C155.61,247.92 157.07,246.28 174.75,234.36 C185.85,226.87 190.00,223.48 190.00,221.91 C190.00,221.51 187.47,219.76 184.37,218.01 C177.97,214.40 169.37,206.75 168.45,203.85 C168.10,202.75 165.54,200.89 162.57,199.57 C159.68,198.29 156.39,196.26 155.26,195.05 C154.13,193.84 151.73,192.10 149.93,191.18 C138.76,185.48 137.12,150.39 147.70,143.46 C149.24,142.45 151.31,140.60 152.30,139.34 C153.30,138.08 156.02,136.20 158.35,135.17 C161.94,133.58 162.80,132.61 163.91,128.90 C166.67,119.68 171.16,112.59 179.37,104.46 C186.11,97.80 189.30,95.52 198.00,91.20 C208.22,86.13 224.89,81.05 231.50,81.00 C238.29,80.94 239.00,80.28 238.96,74.13 C238.93,68.91 238.69,68.35 235.75,66.50 C222.63,58.23 226.92,39.57 242.67,36.42 C247.42,35.47 255.02,38.95 258.18,43.52 C261.36,48.12 261.95,55.26 259.54,59.93 C258.09,62.73 253.17,67.44 250.90,68.20 C250.07,68.48 249.92,70.24 250.42,74.18 L 251.12 79.78 L 258.81 80.46 C267.55,81.23 283.03,84.86 291.08,88.02 C303.60,92.95 317.64,101.83 318.29,105.24 C318.71,107.41 318.73,107.42 318.86,105.36 C318.99,103.42 319.68,103.18 326.25,102.83 C330.24,102.62 334.85,101.73 336.50,100.86 C338.15,99.99 342.88,97.45 347.00,95.23 C358.50,89.02 365.77,87.00 376.57,87.00 C383.69,87.00 387.44,87.55 392.92,89.41 C400.41,91.94 408.43,96.56 411.61,100.18 C413.47,102.30 413.47,102.33 411.58,101.64 C406.96,99.94 401.07,99.11 397.63,99.67 L 393.91 100.28 L 396.13 102.64 C397.35,103.94 398.01,105.00 397.60,105.00 C397.19,105.00 391.83,103.83 385.68,102.40 C376.31,100.22 372.96,99.88 365.00,100.32 C355.69,100.83 342.00,104.18 342.00,105.95 C342.00,106.42 344.36,107.14 347.25,107.53 C350.14,107.93 353.55,108.65 354.83,109.13 C356.69,109.84 357.54,109.56 359.00,107.76 C360.64,105.73 361.59,105.53 368.17,105.77 C372.20,105.91 376.96,106.51 378.75,107.09 L 382.00 108.16 L 382.00 115.96 C382.00,123.55 382.07,123.79 384.75,124.81 C389.11,126.47 393.98,127.74 401.27,129.10 C405.18,129.84 407.88,130.82 407.66,131.44 C407.44,132.02 409.84,135.20 412.97,138.50 C418.31,144.12 421.81,149.00 420.50,149.00 C420.18,149.00 418.08,148.06 415.83,146.91 C413.27,145.61 408.89,144.61 404.12,144.25 C397.10,143.72 396.61,143.81 397.87,145.34 C399.11,146.84 398.87,147.00 395.37,146.99 C393.24,146.98 389.07,145.85 386.10,144.47 C383.14,143.09 380.57,142.09 380.41,142.26 C379.91,142.76 377.41,166.47 374.95,194.00 C374.34,200.88 373.49,210.10 373.07,214.50 C372.22,223.33 372.53,223.96 377.69,223.98 C381.61,224.00 382.39,225.13 381.55,229.56 C380.94,232.84 380.72,233.00 376.62,233.00 L 372.32 233.00 L 371.18 244.25 C370.55,250.44 369.53,261.01 368.91,267.75 L 367.79 280.01 L 375.81 295.92 C380.58,305.40 384.30,314.19 385.01,317.67 C385.66,320.88 388.56,332.05 391.47,342.50 C398.75,368.69 398.43,366.51 395.92,372.69 L 393.73 378.09 L 400.79 385.30 C411.93,396.67 417.47,404.44 419.93,412.16 C421.06,415.72 421.32,415.87 428.80,417.52 C444.66,421.03 446.43,424.75 434.01,428.42 C403.73,437.35 278.04,442.30 178.90,438.46 ZM 307.95 426.11 C314.32,423.06 324.76,413.79 325.60,410.45 C326.39,407.32 320.10,395.48 315.00,390.50 C310.56,386.17 305.37,383.84 299.50,383.56 C293.49,383.27 288.82,381.98 285.67,379.75 C282.40,377.44 282.24,377.49 270.39,385.00 C266.48,387.47 261.14,390.76 258.52,392.30 C253.92,395.00 253.78,395.22 254.37,398.80 C254.70,400.83 254.98,403.96 254.99,405.75 C255.00,408.45 255.38,409.00 257.25,409.00 C259.76,409.00 270.59,406.81 279.00,404.61 C282.02,403.81 284.63,403.30 284.79,403.46 C285.73,404.39 249.74,425.00 247.17,425.00 C246.53,425.00 246.00,425.39 246.00,425.86 C246.00,426.70 259.84,423.82 283.50,418.04 C290.10,416.43 299.55,414.13 304.50,412.94 C314.00,410.64 317.76,409.10 320.45,406.40 C322.71,404.15 323.62,405.42 321.75,408.22 C318.24,413.49 307.00,423.41 300.00,427.42 L 295.50 430.00 L 299.00 429.36 C300.92,429.01 304.95,427.55 307.95,426.11 ZM 219.84 425.38 C231.13,419.48 232.06,418.46 232.72,411.18 L 233.29 404.89 L 226.64 409.06 C222.15,411.87 220.00,413.85 220.00,415.17 C220.00,416.24 217.93,419.00 215.41,421.30 C206.14,429.73 208.08,431.52 219.84,425.38 ZM 359.63 422.75 C366.12,415.93 368.02,404.66 363.91,397.34 C359.87,390.15 346.29,375.00 343.88,375.00 C343.42,375.00 342.33,376.10 341.45,377.44 C339.89,379.82 340.02,380.10 346.68,388.82 C352.09,395.91 354.54,398.25 358.50,400.13 C363.16,402.34 363.49,402.74 363.36,406.00 C363.07,413.07 361.71,417.78 359.14,420.61 C354.90,425.27 353.69,427.00 354.67,427.00 C355.17,427.00 357.40,425.09 359.63,422.75 ZM 143.06 416.40 C138.01,411.11 134.06,406.61 134.28,406.38 C134.51,406.16 137.35,407.15 140.60,408.59 C148.09,411.91 163.75,417.09 176.00,420.31 C192.72,424.71 193.51,424.55 183.00,418.88 C174.16,414.11 161.64,406.01 162.24,405.44 C162.38,405.30 166.77,406.30 172.00,407.65 C177.23,409.00 185.64,410.43 190.69,410.82 C201.39,411.66 199.61,413.48 205.55,395.63 L 209.50 383.75 L 205.58 380.63 C203.43,378.91 200.50,376.52 199.08,375.32 L 196.50 373.14 L 199.00 372.13 C203.39,370.37 198.76,371.07 191.01,373.35 C186.28,374.75 183.41,376.13 183.22,377.11 C183.04,378.05 185.00,380.06 188.21,382.22 C193.69,385.91 204.62,395.00 203.57,395.00 C203.24,395.00 196.61,391.81 188.83,387.92 C176.93,381.95 174.17,380.93 171.36,381.46 C169.53,381.80 167.09,381.59 165.95,380.97 C163.90,379.88 162.72,380.03 151.73,382.84 C149.66,383.36 146.21,385.38 144.07,387.32 C141.93,389.25 139.25,391.33 138.13,391.93 C137.00,392.54 134.71,395.02 133.04,397.45 C128.84,403.55 128.99,407.46 133.61,412.86 C137.73,417.67 148.15,425.12 151.87,425.92 C152.07,425.96 148.10,421.68 143.06,416.40 ZM 98.27 419.75 C94.79,416.19 93.85,414.31 92.47,408.21 C91.56,404.19 91.05,400.32 91.32,399.60 C91.61,398.86 94.32,398.00 97.65,397.61 C102.30,397.06 104.17,396.28 106.91,393.71 L 110.33 390.50 L 108.17 393.65 C105.49,397.56 105.47,399.18 108.03,405.50 L 110.06 410.50 L 109.45 403.75 C109.07,399.58 109.22,397.00 109.82,397.00 C110.37,397.00 114.11,398.12 118.15,399.49 C122.19,400.86 126.02,401.99 126.65,401.99 C127.29,402.00 129.01,399.95 130.48,397.44 C131.95,394.94 135.32,391.33 137.98,389.42 C143.02,385.80 144.82,383.19 142.73,382.54 C142.05,382.33 139.32,381.95 136.65,381.69 C133.92,381.43 130.55,380.30 128.95,379.12 L 126.12 377.03 L 121.31 380.67 C118.66,382.68 116.35,384.70 116.17,385.16 C115.98,385.62 115.32,386.00 114.70,386.00 C114.08,386.00 115.92,383.62 118.78,380.72 C124.13,375.30 125.69,370.97 122.25,371.03 C117.15,371.13 102.31,382.13 93.72,392.19 C88.24,398.61 87.94,400.71 91.02,411.05 C92.53,416.13 93.91,418.59 96.55,420.91 C101.78,425.50 103.05,424.65 98.27,419.75 ZM 377.00 422.53 C377.00,422.26 375.54,421.30 373.75,420.39 C371.96,419.47 370.13,418.22 369.67,417.61 C369.14,416.89 368.99,417.03 369.25,418.00 C369.47,418.83 371.19,420.27 373.07,421.20 C377.02,423.16 377.00,423.15 377.00,422.53 ZM 222.89 397.08 C225.82,385.02 228.01,374.55 227.76,373.83 C227.51,373.10 226.32,376.77 225.11,382.00 C223.90,387.23 222.30,393.52 221.57,396.00 C220.83,398.48 219.65,403.20 218.95,406.50 C218.24,409.80 217.08,413.68 216.37,415.12 C215.19,417.53 215.40,419.00 216.95,419.00 C217.29,419.00 219.96,409.13 222.89,397.08 ZM 411.00 418.60 C411.00,418.38 409.09,417.22 406.75,416.02 C404.41,414.83 398.50,409.94 393.62,405.17 C386.98,398.69 385.21,397.36 386.62,399.91 C390.32,406.62 398.84,414.80 404.32,416.90 C409.64,418.95 411.00,419.30 411.00,418.60 ZM 246.54 412.87 C249.03,411.71 251.42,410.02 251.86,409.12 C252.92,406.94 251.30,358.46 250.01,353.86 C249.44,351.85 247.84,349.47 246.42,348.54 C243.98,346.94 243.90,346.94 244.79,348.68 C245.30,349.68 246.03,352.51 246.41,354.97 C246.79,357.43 247.57,359.73 248.14,360.09 C248.79,360.49 249.33,367.59 249.55,378.62 C249.74,388.45 250.30,398.59 250.80,401.14 C251.94,407.00 251.16,408.38 244.94,411.53 C237.30,415.40 238.69,416.57 246.54,412.87 ZM 352.94 402.33 C353.00,400.07 344.62,386.78 341.14,383.63 C339.19,381.87 338.96,381.87 333.82,383.70 C330.23,384.98 327.20,385.40 324.50,385.00 C321.15,384.50 317.82,385.13 316.13,386.59 C315.93,386.76 317.30,388.70 319.19,390.91 C321.07,393.11 323.26,396.17 324.05,397.70 C324.84,399.24 326.29,401.91 327.27,403.63 L 329.05 406.75 L 336.98 404.45 C349.34,400.85 349.55,400.86 349.21,405.00 C349.05,406.92 348.72,409.85 348.47,411.50 C348.11,413.92 348.50,413.54 350.45,409.50 C351.79,406.75 352.90,403.53 352.94,402.33 ZM 237.37 397.25 C238.84,374.75 239.23,365.53 238.67,366.05 C238.34,366.35 237.60,374.00 237.03,383.05 C236.46,392.10 235.76,401.19 235.48,403.25 C235.20,405.31 235.37,407.00 235.85,407.00 C236.33,407.00 237.02,402.61 237.37,397.25 ZM 233.39 399.75 C234.52,397.97 236.26,382.00 235.32,382.00 C235.19,382.00 234.00,382.50 232.67,383.11 C230.82,383.95 229.86,385.68 228.64,390.36 C225.42,402.71 225.41,402.00 228.87,402.00 C230.98,402.00 232.41,401.29 233.39,399.75 ZM 212.26 387.78 C213.11,385.43 215.00,378.41 216.44,372.19 C219.32,359.80 221.50,353.44 223.82,350.74 C224.64,349.78 225.07,348.74 224.77,348.44 C224.06,347.73 220.69,352.62 219.20,356.50 C218.57,358.15 217.11,363.10 215.95,367.50 C214.79,371.90 212.78,379.45 211.49,384.27 C209.06,393.30 209.51,395.35 212.26,387.78 ZM 267.60 380.75 C275.49,376.11 279.85,372.96 279.71,372.00 C279.60,371.17 276.58,369.05 273.00,367.27 C265.68,363.64 264.15,363.27 266.09,365.61 C267.26,367.02 266.63,367.99 261.08,373.24 C255.55,378.47 254.66,379.81 254.23,383.62 C253.96,386.03 254.09,388.00 254.51,388.00 C254.93,388.00 260.82,384.74 267.60,380.75 ZM 362.38 358.00 C363.28,318.97 365.41,275.30 367.60,250.75 C368.11,245.08 367.98,243.00 367.12,243.00 C365.34,243.00 365.23,243.76 363.57,268.50 C359.78,324.96 358.03,381.31 359.94,384.89 C360.61,386.14 361.29,387.02 361.44,386.84 C361.60,386.65 362.02,373.67 362.38,358.00 ZM 210.81 379.25 C213.33,372.69 213.31,372.00 210.61,372.00 C208.51,372.00 203.71,373.53 202.07,374.72 C201.52,375.11 208.15,382.00 209.07,382.00 C209.45,382.00 210.23,380.76 210.81,379.25 ZM 318.40 377.51 C319.67,376.14 321.79,372.99 323.10,370.51 C324.42,368.03 326.06,366.00 326.75,366.00 C328.38,366.00 328.41,365.82 325.44,372.53 C323.42,377.11 323.16,378.48 324.19,379.14 C328.21,381.69 334.10,377.87 338.50,369.87 C342.69,362.26 342.72,354.09 338.60,348.14 C334.36,342.02 330.41,340.49 319.00,340.55 C311.05,340.58 308.77,340.97 305.00,342.93 C296.07,347.56 288.08,356.23 285.46,364.11 C283.25,370.77 284.09,373.49 289.11,376.06 C293.21,378.15 295.40,378.00 293.18,375.78 C290.33,372.93 292.81,362.75 297.76,356.97 C299.24,355.24 302.00,354.24 302.00,355.43 C302.00,355.67 300.68,358.03 299.06,360.68 C296.28,365.24 295.62,367.42 295.88,371.09 C295.99,372.55 299.83,375.00 302.03,375.00 C302.54,375.00 305.03,371.85 307.57,368.01 C310.10,364.16 312.55,360.78 313.02,360.49 C315.25,359.11 314.61,362.32 311.49,368.10 C307.59,375.35 307.25,377.46 309.75,378.92 C312.72,380.65 315.99,380.11 318.40,377.51 ZM 150.35 376.73 C151.98,375.54 151.93,375.04 149.49,368.58 C146.43,360.44 147.53,357.68 151.03,364.72 C155.22,373.15 156.94,375.15 159.34,374.42 C162.26,373.53 165.00,371.01 165.00,369.22 C165.00,368.41 163.64,365.07 161.98,361.81 C160.32,358.54 159.23,355.44 159.55,354.92 C160.50,353.39 161.69,354.68 165.17,361.02 C168.54,367.14 169.99,367.77 173.75,364.76 C177.70,361.59 170.17,346.27 162.70,342.30 C157.65,339.61 145.91,340.07 139.00,343.23 C128.28,348.13 124.36,355.84 127.35,366.14 C129.30,372.84 131.61,375.89 135.00,376.24 C137.74,376.52 138.04,374.89 136.50,368.25 C136.04,366.24 136.13,365.00 136.75,365.00 C137.31,365.00 138.33,366.46 139.04,368.25 C140.96,373.12 144.87,378.00 146.86,378.00 C147.83,378.00 149.40,377.43 150.35,376.73 ZM 176.10 374.89 C180.95,373.30 183.00,370.53 183.00,365.56 C183.00,362.34 182.40,360.79 180.45,358.96 L 177.91 356.56 L 178.59 360.82 C179.25,364.96 179.14,365.18 174.13,369.79 C171.31,372.38 169.00,374.84 169.00,375.25 C169.00,376.33 172.18,376.17 176.10,374.89 ZM 259.02 371.37 C261.21,369.92 263.00,368.37 263.00,367.91 C263.00,366.59 256.16,363.73 254.51,364.36 C253.68,364.68 253.01,365.96 253.01,367.22 C253.03,369.82 254.03,374.00 254.64,374.00 C254.86,374.00 256.83,372.82 259.02,371.37 ZM 228.68 369.81 C228.36,369.01 228.13,369.25 228.08,370.42 C228.04,371.47 228.27,372.06 228.60,371.73 C228.94,371.40 228.97,370.53 228.68,369.81 ZM 379.05 362.57 C377.37,360.13 373.77,355.75 371.04,352.82 C366.33,347.77 366.07,347.63 366.04,350.15 C366.01,352.19 367.75,354.40 373.75,359.88 C378.01,363.78 381.63,366.97 381.80,366.98 C381.96,366.99 380.72,365.01 379.05,362.57 ZM 195.70 362.11 C196.35,361.07 199.16,359.19 201.94,357.93 C204.72,356.67 207.00,355.22 207.00,354.69 C207.00,353.60 199.16,354.63 197.55,355.94 C196.97,356.42 193.88,356.38 190.62,355.86 C187.38,355.35 184.56,355.10 184.35,355.31 C184.14,355.52 184.99,356.99 186.24,358.57 C187.48,360.16 188.39,361.57 188.25,361.73 C187.15,362.94 188.55,364.00 191.26,364.00 C193.37,364.00 194.93,363.34 195.70,362.11 ZM 236.98 360.75 C236.99,360.34 236.55,360.00 236.00,360.00 C235.45,360.00 235.01,361.01 235.02,362.25 C235.03,364.07 235.22,364.21 236.00,363.00 C236.53,362.17 236.98,361.16 236.98,360.75 ZM 283.39 357.74 C284.75,355.58 284.27,355.22 278.96,354.43 L 274.50 353.78 L 277.50 356.77 C280.78,360.05 281.83,360.22 283.39,357.74 ZM 243.00 358.00 C243.00,357.45 242.80,357.00 242.56,357.00 C242.32,357.00 241.84,357.45 241.50,358.00 C241.16,358.55 241.36,359.00 241.94,359.00 C242.52,359.00 243.00,358.55 243.00,358.00 ZM 217.00 353.15 C217.00,352.27 194.92,347.75 194.19,348.48 C193.65,349.02 203.97,351.99 209.83,352.98 C216.43,354.09 217.00,354.10 217.00,353.15 ZM 280.30 349.50 L 284.50 348.16 L 278.50 348.73 C275.20,349.04 269.12,349.90 265.00,350.62 L 257.50 351.94 L 266.80 351.39 C271.92,351.09 278.00,350.24 280.30,349.50 ZM 129.33 341.03 C142.84,334.80 153.40,333.40 163.59,336.49 C166.29,337.31 168.68,337.98 168.91,337.99 C169.13,338.00 168.00,336.88 166.41,335.50 C164.81,334.13 161.97,332.71 160.10,332.36 C155.02,331.41 139.92,332.66 136.50,334.32 C134.85,335.13 131.70,336.59 129.50,337.57 C125.23,339.49 117.99,344.15 114.27,347.39 C110.30,350.84 111.83,351.21 116.58,347.95 C119.09,346.22 124.83,343.10 129.33,341.03 ZM 228.85 342.00 C229.26,342.00 229.47,343.69 229.31,345.75 C229.03,349.46 229.04,349.47 230.00,346.50 C230.53,344.85 230.72,342.71 230.42,341.75 C230.05,340.59 230.40,340.00 231.43,340.00 C232.38,340.00 233.01,340.89 233.03,342.25 C233.06,344.22 233.21,344.30 234.28,342.92 C234.95,342.04 237.21,341.06 239.29,340.72 C243.03,340.12 243.06,340.13 240.91,341.87 C239.29,343.18 238.93,344.20 239.47,345.91 C240.19,348.18 240.21,348.18 242.02,345.21 C243.02,343.56 244.33,341.91 244.94,341.54 C247.08,340.21 244.89,339.15 238.63,338.48 C233.72,337.95 231.58,338.16 229.15,339.42 C225.44,341.34 225.05,342.90 226.75,349.00 C227.31,351.01 227.52,350.57 227.78,346.75 C227.96,344.14 228.44,342.00 228.85,342.00 ZM 208.00 348.61 C208.00,348.39 207.32,347.95 206.50,347.64 C205.68,347.32 205.00,347.50 205.00,348.03 C205.00,348.56 205.68,349.00 206.50,349.00 C207.32,349.00 208.00,348.82 208.00,348.61 ZM 223.64 345.30 C223.23,344.89 222.47,345.22 221.96,346.03 C220.42,348.46 220.88,349.55 222.69,347.74 C223.62,346.81 224.05,345.71 223.64,345.30 ZM 213.73 345.40 C213.40,345.06 212.53,345.03 211.81,345.32 C211.01,345.64 211.25,345.87 212.42,345.92 C213.47,345.96 214.06,345.73 213.73,345.40 ZM 386.10 337.88 C385.02,333.82 382.97,326.15 381.56,320.83 C379.15,311.77 376.74,305.85 371.01,295.00 C368.75,290.70 368.61,290.61 367.99,293.00 C367.02,296.70 367.83,298.39 369.78,296.78 C371.12,295.67 371.25,295.86 370.79,298.29 C370.18,301.49 371.87,307.09 374.23,309.71 C375.11,310.69 376.81,315.33 377.99,320.00 C379.17,324.67 381.39,331.20 382.92,334.50 C384.45,337.80 386.02,341.79 386.40,343.37 C386.78,344.95 387.32,346.02 387.59,345.75 C387.86,345.48 387.19,341.94 386.10,337.88 ZM 174.14 337.74 C172.47,334.83 168.85,330.17 166.08,327.37 C160.35,321.57 145.71,311.60 143.85,312.22 C143.17,312.44 148.21,317.11 155.05,322.59 C162.55,328.60 169.29,334.95 172.00,338.57 C177.30,345.66 178.42,345.23 174.14,337.74 ZM 216.99 344.25 C217.00,344.12 215.54,343.37 213.75,342.59 C210.62,341.23 210.76,341.19 217.50,341.58 L 224.50 341.99 L 217.00 340.07 C212.88,339.01 208.38,337.85 207.00,337.49 C205.06,336.97 204.84,337.07 206.00,337.90 C207.33,338.85 207.33,338.97 206.00,338.97 C204.33,338.97 200.92,337.05 202.50,337.00 C203.05,336.98 202.82,336.53 202.00,336.00 C200.07,334.75 191.25,334.67 192.55,335.91 C193.07,336.41 196.43,337.73 200.00,338.85 C203.57,339.97 205.60,340.95 204.50,341.03 C202.88,341.14 203.05,341.41 205.41,342.45 C207.35,343.30 207.85,343.90 206.91,344.24 C206.13,344.53 208.08,344.70 211.24,344.63 C214.40,344.56 216.99,344.39 216.99,344.25 ZM 343.99 299.50 C344.60,287.95 345.51,274.00 346.01,268.50 C347.49,252.03 347.99,240.93 347.04,245.50 C344.80,256.23 341.01,311.86 341.17,331.50 L 341.29 345.50 L 342.08 333.00 C342.51,326.12 343.37,311.05 343.99,299.50 ZM 275.00 341.58 C275.00,340.66 276.77,339.95 280.25,339.48 C286.84,338.60 289.91,337.07 285.19,337.03 C282.92,337.01 282.11,336.63 282.61,335.83 C283.09,335.04 282.78,334.87 281.63,335.31 C278.31,336.59 268.38,338.87 260.75,340.12 C256.49,340.82 253.00,341.64 253.00,341.95 C253.00,342.25 257.95,342.61 264.00,342.73 C272.84,342.92 275.00,342.69 275.00,341.58 ZM 338.00 337.65 C338.00,335.71 337.12,335.02 332.89,333.65 C325.40,331.23 314.62,331.45 310.32,334.11 C306.23,336.64 306.47,337.43 310.86,335.90 C315.83,334.17 328.78,335.16 333.50,337.64 C335.70,338.79 337.61,339.80 337.75,339.87 C337.89,339.94 338.00,338.94 338.00,337.65 ZM 304.08 336.40 C307.92,332.28 317.82,324.77 326.29,319.55 C330.57,316.91 333.89,314.56 333.66,314.33 C332.86,313.52 324.41,317.41 318.50,321.31 C312.01,325.59 305.02,331.87 301.85,336.25 C299.33,339.73 300.87,339.84 304.08,336.40 ZM 263.00 333.45 C264.92,332.73 270.35,331.85 275.06,331.50 C279.77,331.14 284.27,330.40 285.06,329.85 C286.07,329.15 285.02,328.99 281.50,329.33 L 276.50 329.80 L 281.00 327.34 C283.48,325.99 284.60,325.18 283.50,325.54 C282.40,325.90 277.90,327.29 273.50,328.62 C269.10,329.95 264.12,331.48 262.43,332.02 C257.27,333.67 256.66,333.21 259.37,329.75 C263.02,325.11 264.42,323.66 266.59,322.29 C268.12,321.33 267.80,321.31 265.00,322.19 C263.08,322.79 261.05,323.61 260.50,324.01 C258.39,325.53 253.43,325.76 250.90,324.45 C248.70,323.31 247.96,323.31 246.44,324.42 C244.82,325.61 245.31,325.84 250.80,326.48 C257.77,327.29 257.83,327.88 251.31,332.02 C247.24,334.60 247.06,334.88 249.18,335.31 C252.28,335.92 258.69,335.06 263.00,333.45 ZM 121.14 319.00 C121.76,317.08 124.12,312.93 126.38,309.78 C129.78,305.05 131.02,304.05 133.50,304.01 L 136.50 303.96 L 134.08 302.10 L 131.67 300.24 L 133.83 299.55 C135.03,299.17 136.00,298.27 136.00,297.54 C136.00,295.98 146.14,278.00 147.02,278.00 C147.35,278.00 148.13,279.24 148.76,280.75 C149.82,283.29 149.89,283.12 149.72,278.50 C149.57,274.24 150.17,272.43 153.77,266.33 C156.09,262.39 159.12,257.82 160.50,256.19 C161.87,254.55 163.02,252.83 163.04,252.36 C163.06,251.89 167.53,248.19 172.98,244.14 C183.01,236.69 186.70,233.37 185.86,232.52 C185.11,231.78 166.95,244.29 161.78,249.10 C157.22,253.35 153.74,258.58 140.52,281.00 C137.12,286.77 131.40,296.00 127.81,301.50 C118.90,315.15 118.35,316.43 117.76,325.00 L 117.25 332.50 L 118.64 327.50 C119.40,324.75 120.53,320.92 121.14,319.00 ZM 237.50 327.08 C236.40,326.65 232.35,326.01 228.50,325.66 C224.65,325.31 216.13,323.90 209.56,322.54 C198.61,320.26 195.70,320.03 197.23,321.57 C197.86,322.19 206.59,324.04 217.50,325.85 C229.86,327.91 241.40,328.62 237.50,327.08 ZM 164.54 311.34 C157.91,298.53 155.81,294.86 155.35,295.31 C155.13,295.53 156.93,299.94 159.34,305.11 C166.57,320.59 167.99,323.83 168.16,325.20 C168.25,325.91 168.50,325.08 168.72,323.34 C169.01,321.03 167.89,317.82 164.54,311.34 ZM 323.52 310.00 C332.86,300.16 336.07,296.13 331.48,300.00 C329.85,301.38 328.29,302.73 328.01,303.01 C327.73,303.30 325.15,305.46 322.28,307.83 C319.41,310.20 315.47,314.75 313.53,317.95 C309.37,324.80 308.97,326.97 312.78,322.00 C314.25,320.08 319.09,314.67 323.52,310.00 ZM 299.73 317.40 C299.49,317.15 298.48,317.26 297.50,317.64 C295.81,318.29 295.82,318.39 297.61,319.71 C299.25,320.92 299.54,320.89 299.84,319.47 C300.02,318.58 299.98,317.64 299.73,317.40 ZM 298.69 311.25 C298.44,310.29 298.23,311.08 298.23,313.00 C298.23,314.92 298.44,315.71 298.69,314.75 C298.94,313.79 298.94,312.21 298.69,311.25 ZM 311.42 310.75 C311.79,307.86 313.87,298.37 316.05,289.66 C320.25,272.84 320.80,269.48 318.49,274.79 C315.34,282.04 310.17,301.93 309.66,308.75 C309.04,317.07 310.40,318.63 311.42,310.75 ZM 179.41 301.49 C180.27,294.35 181.47,284.00 182.07,278.50 C183.25,267.85 188.11,242.03 190.61,233.14 C191.44,230.20 191.90,227.57 191.64,227.31 C188.92,224.59 182.85,255.12 179.46,288.50 C176.88,313.89 176.75,315.58 177.42,314.91 C177.66,314.68 178.55,308.64 179.41,301.49 ZM 208.20 310.01 C207.70,308.65 206.43,307.59 205.22,307.50 C203.40,307.36 203.26,307.62 204.18,309.42 C204.77,310.56 205.99,312.34 206.88,313.36 C208.84,315.62 209.58,313.75 208.20,310.01 ZM 215.00 305.81 C215.00,305.36 214.36,305.00 213.58,305.00 C212.80,305.00 211.45,304.73 210.58,304.39 C208.47,303.58 208.54,305.84 210.71,308.24 C212.34,310.04 212.49,310.04 213.71,308.38 C214.42,307.41 215.00,306.25 215.00,305.81 ZM 249.26 302.75 C261.31,286.48 275.64,265.63 278.12,260.77 C282.15,252.86 279.11,256.23 270.93,268.73 C266.33,275.75 259.85,285.33 256.52,290.00 C249.04,300.52 242.83,310.00 243.43,310.00 C243.68,310.00 246.30,306.74 249.26,302.75 ZM 230.05 293.29 C234.81,286.65 232.94,288.20 225.89,296.74 C216.58,308.00 215.05,310.32 221.39,303.54 C224.46,300.26 228.35,295.64 230.05,293.29 ZM 217.91 296.08 C220.16,289.19 220.71,285.18 219.03,288.06 C217.73,290.27 214.03,304.37 215.02,303.35 C215.46,302.88 216.77,299.61 217.91,296.08 ZM 297.72 281.75 C297.72,259.83 298.85,249.51 303.59,228.50 C303.96,226.85 304.74,224.90 305.32,224.17 C306.08,223.22 305.98,222.61 304.96,221.98 C303.17,220.87 303.01,221.06 301.90,225.67 C297.67,243.16 296.07,256.70 296.04,275.00 C296.02,289.11 296.72,302.00 297.50,302.00 C297.63,302.00 297.73,292.89 297.72,281.75 ZM 175.28 288.66 C174.58,284.89 173.56,280.39 173.02,278.66 C172.16,275.92 172.10,276.17 172.56,280.50 C172.85,283.25 173.62,289.10 174.27,293.50 C175.18,299.66 175.58,300.81 176.00,298.50 C176.31,296.85 175.98,292.42 175.28,288.66 ZM 224.28 295.75 C225.11,294.51 226.63,292.60 227.65,291.50 C229.95,289.01 252.66,258.57 270.44,234.13 L 274.34 228.77 L 268.92 229.51 C265.94,229.92 262.73,230.54 261.78,230.89 C260.83,231.24 255.07,238.04 248.98,246.01 C242.88,253.98 237.35,261.17 236.68,262.00 C232.88,266.71 224.16,279.83 223.56,281.75 C222.73,284.42 223.14,284.50 227.14,282.43 C228.82,281.56 230.42,281.09 230.70,281.37 C230.99,281.65 229.20,284.50 226.73,287.69 C220.87,295.26 219.44,298.00 221.35,298.00 C222.13,298.00 223.45,296.99 224.28,295.75 ZM 212.02 289.55 C211.45,288.06 211.21,286.46 211.49,286.01 C211.77,285.56 211.13,283.24 210.07,280.85 L 208.14 276.50 L 208.07 280.22 C208.03,282.27 208.98,285.97 210.19,288.45 C212.55,293.30 213.71,294.01 212.02,289.55 ZM 223.47 259.03 C220.82,253.52 218.51,249.16 218.32,249.35 C217.86,249.80 223.46,263.27 225.64,266.97 C229.32,273.20 228.07,268.64 223.47,259.03 ZM 233.65 262.25 C235.29,260.19 236.97,257.92 237.40,257.21 C237.87,256.42 236.03,252.17 232.65,246.21 C229.61,240.87 226.60,235.30 225.94,233.83 C224.72,231.10 222.48,230.04 217.86,230.01 C215.38,230.00 215.26,230.21 215.99,233.25 C217.99,241.64 228.40,266.00 229.98,266.00 C230.36,266.00 232.01,264.31 233.65,262.25 ZM 339.94 246.57 C336.96,242.42 329.31,236.67 317.52,229.72 C310.56,225.62 308.00,224.72 308.00,226.38 C308.00,227.12 310.81,229.42 314.25,231.51 C327.69,239.67 334.42,245.19 338.50,251.40 L 342.50 257.50 L 342.81 254.25 C343.04,251.87 342.28,249.82 339.94,246.57 ZM 249.94 241.50 L 255.37 234.50 L 249.95 239.11 C242.98,245.05 238.58,250.50 239.52,252.02 C240.37,253.41 241.92,251.85 249.94,241.50 ZM 239.40 249.17 C239.93,248.31 236.46,242.68 232.33,237.67 C228.83,233.42 229.52,236.32 233.75,243.55 C237.45,249.87 238.38,250.80 239.40,249.17 ZM 345.22 237.75 C345.47,233.76 345.56,230.35 345.42,230.17 C345.28,229.98 343.31,229.58 341.03,229.28 L 336.90 228.72 L 337.20 224.61 L 337.50 220.50 L 342.21 220.50 L 346.92 220.50 L 347.90 216.00 C348.43,213.52 349.14,208.35 349.46,204.50 C349.79,200.65 350.33,195.98 350.66,194.11 L 351.27 190.72 L 348.14 192.58 C346.41,193.60 345.00,194.79 345.00,195.23 C345.00,197.02 338.29,199.99 334.25,200.00 C331.91,200.00 329.99,200.34 329.98,200.75 C329.93,203.25 317.89,213.53 311.42,216.60 C308.09,218.19 308.01,218.35 309.62,220.14 C310.56,221.17 315.01,224.02 319.51,226.48 C329.23,231.78 339.06,238.84 341.64,242.39 C342.66,243.79 343.79,244.95 344.14,244.97 C344.49,244.99 344.98,241.74 345.22,237.75 ZM 368.00 239.04 C368.00,236.05 364.92,235.00 356.17,235.00 C349.71,235.00 348.10,235.31 347.58,236.64 C347.24,237.55 347.08,238.41 347.23,238.56 C347.77,239.10 359.58,240.76 363.75,240.88 C367.35,240.98 368.00,240.70 368.00,239.04 ZM 378.82 228.29 C378.62,227.26 377.10,226.28 374.99,225.83 C369.09,224.56 340.94,221.92 339.94,222.54 C339.42,222.86 339.00,223.95 339.00,224.97 C339.00,226.56 340.06,226.91 346.25,227.40 C350.24,227.71 354.62,227.96 356.00,227.94 C357.38,227.93 360.75,228.34 363.50,228.84 C366.25,229.35 370.90,229.82 373.82,229.88 C378.34,229.98 379.10,229.74 378.82,228.29 ZM 266.00 222.53 C279.68,220.51 286.29,219.11 287.42,217.98 C288.06,217.34 287.99,215.86 287.20,213.69 C286.55,211.87 285.71,206.92 285.36,202.69 C284.65,194.30 284.83,194.47 277.75,195.64 C274.40,196.20 273.98,196.59 273.84,199.38 L 273.68 202.50 L 273.29 199.40 L 272.90 196.30 L 241.70 196.28 C223.28,196.26 206.28,195.75 200.20,195.01 C194.53,194.33 189.75,193.94 189.58,194.14 C189.06,194.73 190.67,206.20 191.88,210.50 C193.47,216.17 194.22,217.02 198.60,218.13 C200.75,218.67 204.30,219.57 206.50,220.13 C221.30,223.87 249.26,225.00 266.00,222.53 ZM 365.35 222.31 C364.17,222.08 362.98,221.01 362.70,219.94 C362.28,218.35 362.71,218.00 365.09,218.00 C366.96,218.00 368.00,218.52 368.00,219.44 C368.00,220.23 368.45,221.16 369.00,221.50 C369.58,221.86 370.00,220.89 370.00,219.20 C370.00,216.30 369.98,216.29 360.95,214.99 C354.12,214.01 351.62,213.98 350.75,214.85 C349.88,215.72 349.90,216.00 350.81,216.00 C351.75,216.00 351.75,216.43 350.80,217.95 C349.12,220.63 350.22,221.39 356.83,222.10 C363.71,222.84 368.68,222.96 365.35,222.31 ZM 303.50 212.12 C307.35,210.13 312.65,206.44 315.27,203.92 L 320.04 199.33 L 317.30 192.42 C314.72,185.92 314.56,184.57 314.58,170.00 C314.59,160.32 315.09,152.82 315.90,150.03 C318.81,140.02 325.27,129.21 327.38,130.83 C328.00,131.30 329.29,131.97 330.25,132.31 C331.87,132.89 331.90,132.69 330.55,129.46 C326.28,119.26 313.89,105.31 303.59,99.11 C298.14,95.84 297.89,95.79 295.98,97.52 C289.98,102.95 286.00,119.21 286.00,138.30 L 286.00 150.10 L 294.25 149.51 C304.10,148.81 305.99,149.80 306.95,156.22 C307.31,158.58 307.23,165.41 306.79,171.41 C305.59,187.50 302.24,192.43 291.50,193.97 L 287.50 194.54 L 287.78 201.02 C288.03,206.63 288.56,209.46 290.55,215.77 C291.12,217.58 295.14,216.45 303.50,212.12 ZM 188.86 206.75 C187.86,202.21 187.04,197.26 187.02,195.75 C187.01,193.94 186.47,193.00 185.45,193.00 C184.60,193.00 182.53,192.29 180.86,191.43 C176.11,188.97 174.01,182.89 172.73,167.91 C171.67,155.49 171.71,154.87 173.69,152.24 C175.48,149.87 176.44,149.51 180.88,149.54 C185.09,149.58 186.00,149.28 186.00,147.85 C186.00,145.54 184.97,145.02 178.99,144.31 C174.61,143.79 173.60,144.02 171.47,146.03 C169.25,148.12 169.00,148.16 169.00,146.51 C169.00,145.50 170.12,142.77 171.48,140.45 C173.63,136.78 175.66,135.05 184.34,129.50 C185.38,128.84 186.28,125.68 187.02,120.14 C187.63,115.54 188.98,109.03 190.02,105.68 C191.07,102.33 191.76,99.43 191.56,99.23 C190.76,98.43 177.86,111.50 174.60,116.42 C170.06,123.26 166.35,134.51 165.48,144.08 C164.71,152.66 166.48,178.14 168.55,188.13 C170.65,198.28 172.79,202.65 177.87,207.12 C181.93,210.70 188.37,214.83 190.09,214.96 C190.41,214.98 189.86,211.29 188.86,206.75 ZM 364.84 208.43 L 367.99 206.86 L 364.92 204.28 C361.90,201.74 361.80,201.72 358.30,203.40 L 354.74 205.09 L 357.04 207.55 C359.75,210.43 360.64,210.53 364.84,208.43 ZM 366.94 196.42 C368.18,195.24 367.99,194.72 365.56,192.64 L 362.75 190.22 L 359.29 192.26 L 355.84 194.29 L 358.67 196.60 C361.62,199.01 364.28,198.95 366.94,196.42 ZM 274.48 188.84 C275.02,184.07 275.47,183.10 277.38,182.62 C283.15,181.17 287.99,173.71 288.00,166.25 C288.00,163.36 287.73,161.00 287.40,161.00 C287.08,161.00 284.43,161.69 281.53,162.53 L 276.25 164.07 L 275.13 172.85 C274.51,177.68 273.97,182.73 273.93,184.07 C273.87,186.32 273.80,186.36 272.99,184.50 C272.52,183.40 271.84,180.36 271.50,177.75 C271.01,174.01 270.48,173.00 269.02,173.00 C268.00,173.00 266.34,171.95 265.33,170.66 C263.68,168.54 263.08,168.40 259.25,169.21 C254.47,170.23 254.16,171.11 256.99,175.76 C259.28,179.51 264.46,182.99 267.77,183.00 C270.37,183.00 272.00,186.23 272.00,191.40 C272.00,193.20 272.33,194.99 272.73,195.40 C273.61,196.27 273.68,196.02 274.48,188.84 ZM 326.10 182.02 C325.49,179.20 325.00,174.89 325.00,172.43 C325.00,168.13 325.10,167.99 327.58,168.61 C332.75,169.91 334.58,167.66 335.97,158.35 C336.68,153.54 338.25,147.96 339.58,145.45 L 341.93 141.02 L 339.02 139.51 C334.80,137.33 331.30,137.61 329.56,140.27 C324.69,147.69 322.03,164.95 323.89,177.06 C325.20,185.63 325.94,188.39 326.72,187.61 C326.98,187.35 326.70,184.83 326.10,182.02 ZM 366.80 185.98 L 370.11 183.96 L 367.16 181.48 C363.64,178.52 363.22,178.49 360.01,180.96 L 357.53 182.87 L 359.94 185.43 C362.83,188.51 362.67,188.50 366.80,185.98 ZM 346.23 186.44 C346.53,186.13 346.05,184.44 345.14,182.69 C343.88,180.23 343.50,176.64 343.50,167.00 C343.50,155.87 343.75,154.02 345.81,150.10 C347.65,146.60 347.86,145.52 346.81,144.86 C344.75,143.56 343.64,144.32 341.62,148.41 C337.84,156.03 338.50,178.26 342.70,184.66 C344.23,187.01 345.18,187.48 346.23,186.44 ZM 356.02 163.79 C357.20,151.86 358.00,141.28 357.80,140.29 C357.38,138.17 354.17,166.80 353.47,179.00 C352.65,193.32 353.77,186.62 356.02,163.79 ZM 160.00 177.03 C158.65,169.88 158.73,154.17 160.17,146.37 C160.82,142.87 161.08,139.74 160.75,139.42 C160.43,139.09 158.57,139.59 156.62,140.51 C152.03,142.69 149.00,150.20 149.00,159.42 C149.00,166.52 150.23,168.35 154.93,168.22 C157.67,168.14 157.81,168.37 158.45,173.82 C159.19,180.13 159.97,183.36 160.60,182.74 C160.82,182.51 160.56,179.94 160.00,177.03 ZM 214.00 180.88 C216.07,179.72 218.73,177.04 219.92,174.93 L 222.07 171.10 L 218.02 169.89 C214.33,168.78 213.77,168.87 211.67,170.84 C210.41,172.03 208.71,173.00 207.91,173.00 C205.29,173.00 202.14,170.04 201.82,167.27 C201.55,164.99 200.65,164.27 196.12,162.68 C191.68,161.12 190.60,161.02 189.89,162.14 C187.20,166.40 191.17,176.93 196.90,180.74 C201.40,183.73 208.81,183.80 214.00,180.88 ZM 368.10 174.28 C369.69,173.34 370.98,172.33 370.94,172.03 C370.91,171.74 369.56,170.45 367.94,169.17 L 364.99 166.84 L 361.40 169.06 L 357.82 171.28 L 360.66 173.60 C364.10,176.42 364.43,176.45 368.10,174.28 ZM 374.71 168.76 C374.47,167.52 374.26,168.30 374.25,170.50 C374.24,172.70 374.44,173.72 374.69,172.76 C374.94,171.81 374.95,170.01 374.71,168.76 ZM 375.71 160.76 C375.47,159.52 375.26,160.30 375.25,162.50 C375.24,164.70 375.44,165.72 375.69,164.76 C375.94,163.81 375.95,162.01 375.71,160.76 ZM 271.79 159.43 C271.75,155.75 271.40,154.20 270.74,154.86 C269.86,155.74 270.53,165.00 271.48,165.00 C271.68,165.00 271.81,162.49 271.79,159.43 ZM 368.47 162.31 C370.41,161.39 371.98,160.38 371.94,160.06 C371.91,159.75 370.58,158.47 368.98,157.20 C366.23,155.03 365.92,154.99 363.04,156.48 C359.41,158.35 359.24,159.55 362.25,162.06 C365.00,164.35 364.27,164.32 368.47,162.31 ZM 268.75 153.52 C270.42,152.96 271.02,151.96 271.07,149.63 C271.11,147.91 271.53,145.60 272.00,144.50 C272.77,142.71 272.87,142.79 272.93,145.18 C273.05,149.69 274.70,152.88 276.70,152.48 C283.78,151.07 284.00,150.95 284.00,148.59 C284.00,146.32 283.81,146.25 279.84,147.15 C277.55,147.66 275.32,147.72 274.87,147.27 C274.42,146.82 273.76,143.22 273.39,139.26 C273.02,135.30 272.38,132.27 271.96,132.52 C271.55,132.78 270.90,136.54 270.51,140.87 L 269.81 148.76 L 265.16 149.37 C246.97,151.76 212.10,150.87 195.50,147.60 L 189.50 146.41 L 189.21 137.17 L 188.92 127.93 L 192.37 126.49 C196.23,124.88 201.50,123.61 214.00,121.30 C224.31,119.39 261.12,119.12 271.00,120.87 C285.33,123.42 283.69,123.84 284.97,117.28 C286.39,109.94 290.58,99.69 293.08,97.43 C294.13,96.47 295.00,95.38 295.00,95.00 C295.00,94.63 291.96,93.13 288.25,91.69 C261.68,81.35 229.89,81.80 204.06,92.88 L 195.61 96.50 L 193.30 102.28 C189.93,110.67 187.86,125.54 188.21,138.93 L 188.50 150.36 L 191.50 151.21 C201.42,154.02 213.47,154.87 239.50,154.57 C254.35,154.41 267.51,153.93 268.75,153.52 ZM 378.42 139.12 C380.10,123.86 380.34,119.32 379.45,120.22 C378.82,120.85 376.05,145.66 376.02,150.92 C375.98,157.60 376.86,153.29 378.42,139.12 ZM 370.11 150.28 C373.44,148.31 373.39,147.38 369.82,144.72 C367.42,142.93 367.08,142.91 364.13,144.43 C360.32,146.40 360.24,147.26 363.63,149.93 C366.81,152.42 366.50,152.41 370.11,150.28 ZM 355.44 140.75 C355.82,136.21 356.36,131.55 356.64,130.39 C357.30,127.62 354.29,124.69 345.52,119.56 C340.71,116.75 327.90,111.76 327.23,112.44 C327.04,112.62 328.73,115.61 330.98,119.09 C333.22,122.56 335.83,127.57 336.77,130.21 C337.71,132.85 339.16,135.23 339.99,135.50 C342.29,136.24 353.02,146.33 353.01,147.75 C353.00,148.44 353.39,149.00 353.87,149.00 C354.35,149.00 355.06,145.29 355.44,140.75 ZM 371.25 138.06 C374.73,136.31 374.70,135.63 371.01,133.01 C368.10,130.94 367.93,130.93 365.01,132.65 C363.35,133.63 362.00,134.75 362.00,135.13 C362.00,136.00 367.31,140.03 368.00,139.68 C368.27,139.55 369.74,138.82 371.25,138.06 ZM 360.39 123.00 C360.83,117.89 360.72,116.01 360.05,117.11 C359.50,117.99 358.83,123.17 358.56,128.61 C357.99,139.75 359.30,135.74 360.39,123.00 ZM 203.86 130.34 C207.07,128.26 205.22,126.55 200.68,127.40 C196.85,128.12 194.44,130.29 195.52,132.04 C196.35,133.37 200.47,132.53 203.86,130.34 ZM 372.05 126.47 C373.67,125.64 375.00,124.77 375.00,124.54 C375.00,124.32 373.67,123.19 372.03,122.02 C369.22,120.02 368.91,120.00 365.93,121.53 L 362.80 123.16 L 365.07 125.58 C367.75,128.43 368.17,128.48 372.05,126.47 ZM 380.00 113.04 C380.00,110.43 379.53,109.95 375.96,108.99 C373.74,108.39 369.35,108.04 366.21,108.20 C360.57,108.50 360.50,108.54 360.19,111.75 C359.82,115.56 361.67,116.14 362.59,112.50 C363.14,110.31 363.73,110.01 367.36,110.12 C374.65,110.33 377.47,111.31 377.82,113.76 C378.29,117.05 380.00,116.49 380.00,113.04 ZM 249.25 54.58 C250.21,53.87 251.27,51.90 251.61,50.21 C252.10,47.75 251.71,46.62 249.66,44.57 C246.54,41.45 243.16,41.30 239.58,44.11 C237.40,45.83 236.95,46.91 237.20,49.86 C237.44,52.84 238.10,53.80 240.79,55.14 C244.25,56.87 246.34,56.73 249.25,54.58 ZM 189.81 359.32 C190.53,359.03 191.40,359.06 191.73,359.40 C192.06,359.73 191.47,359.96 190.42,359.92 C189.25,359.87 189.01,359.64 189.81,359.32 ZM 251.00 334.54 C251.00,334.28 252.01,333.53 253.25,332.87 C255.29,331.78 255.37,331.83 254.13,333.34 C252.85,334.89 251.00,335.59 251.00,334.54 ZM 364.50 227.00 C362.74,226.24 362.84,226.13 365.31,226.07 C366.94,226.03 367.86,226.42 367.50,227.00 C367.16,227.55 366.80,227.97 366.69,227.93 C366.59,227.89 365.60,227.47 364.50,227.00 ZM 227.50 209.00 C226.09,206.71 228.61,206.00 238.12,206.00 C247.69,206.00 252.00,206.94 252.00,209.04 C252.00,210.34 228.31,210.31 227.50,209.00 ZM 312.00 151.81 C312.00,150.93 310.64,148.75 308.97,146.97 C305.94,143.73 305.92,143.72 298.22,144.27 C293.97,144.57 289.71,145.13 288.75,145.52 C287.18,146.14 287.01,145.47 287.06,138.86 C287.09,134.81 287.43,129.86 287.81,127.87 L 288.50 124.23 L 295.46 126.59 C302.81,129.07 316.00,137.34 316.00,139.47 C316.00,142.44 313.89,151.51 312.99,152.41 C312.34,153.06 312.00,152.85 312.00,151.81 Z" fill="var(--icon-color)"/>
</g>
</svg>