<svg xmlns="http://www.w3.org/2000/svg" width="500" height="500" viewBox="0 0 500 500">
<g>
<path d="M 216.00 427.41 C169.80,425.87 133.07,421.43 126.44,416.58 C124.88,415.44 124.79,414.96 125.87,413.65 C128.12,410.95 137.36,408.94 160.84,406.04 C167.65,405.20 168.60,404.78 173.84,400.23 C176.95,397.54 181.86,393.64 184.75,391.57 C187.64,389.50 190.00,387.71 190.00,387.58 C190.00,387.45 187.98,385.88 185.50,384.11 C180.02,380.17 179.98,379.57 183.95,364.00 C189.14,343.68 196.10,325.56 203.20,313.89 C206.57,308.33 206.87,302.92 204.00,299.27 C202.42,297.26 202.00,295.22 202.00,289.47 L 202.00 282.21 L 198.25 283.12 C191.85,284.68 162.99,285.39 158.32,284.11 C146.09,280.75 139.04,260.54 140.26,232.31 L 140.79 219.94 L 137.65 218.36 C132.98,216.01 129.18,212.09 128.48,208.91 C128.01,206.79 126.97,205.82 124.18,204.93 C117.26,202.71 114.00,198.02 114.00,190.30 C114.01,184.51 116.58,179.83 120.70,178.13 C122.57,177.35 124.07,175.70 124.85,173.55 C126.25,169.68 129.23,167.42 134.19,166.49 L 137.68 165.84 L 135.84 160.26 C133.59,153.46 133.49,147.88 135.55,143.91 C139.20,136.84 151.02,137.57 155.06,145.10 C155.63,146.18 156.93,150.86 157.95,155.50 C159.54,162.80 160.47,164.81 164.78,170.23 C173.27,180.89 174.49,184.02 174.58,195.34 L 174.66 205.18 L 181.79 209.44 C191.09,215.01 203.22,219.01 210.72,218.98 L 216.50 218.96 L 211.38 215.97 C205.47,212.52 197.76,204.66 195.36,199.63 C194.17,197.13 192.54,195.71 189.53,194.56 C180.53,191.13 175.90,183.73 175.19,171.64 C174.19,154.57 179.58,143.00 189.99,139.88 C193.29,138.90 194.19,137.84 198.00,130.50 C205.87,115.33 218.27,105.12 235.60,99.52 L 240.70 97.87 L 241.97 89.18 C243.24,80.51 246.63,66.03 249.16,58.52 C250.40,54.83 250.89,54.45 256.00,53.19 C263.52,51.34 292.32,51.14 302.00,52.87 C326.17,57.19 345.93,66.13 360.73,79.44 L 365.96 84.15 L 363.54 88.82 C360.94,93.87 356.39,100.53 351.30,106.75 L 348.10 110.66 L 352.28 114.08 C360.17,120.54 366.10,127.51 369.55,134.38 C373.64,142.55 374.11,146.35 370.88,145.15 C369.71,144.72 368.22,142.78 367.54,140.78 C364.73,132.62 357.46,123.27 348.79,116.65 C342.74,112.04 342.34,114.59 348.18,120.59 C354.03,126.61 359.17,134.25 361.54,140.47 C362.88,143.97 363.80,144.81 367.85,146.25 C380.36,150.70 386.00,160.18 386.00,176.78 C386.00,187.42 384.65,191.98 379.90,197.38 C375.96,201.85 371.07,204.00 364.83,204.00 C362.15,204.00 360.35,204.97 356.68,208.38 C351.39,213.31 341.70,218.66 332.00,222.01 C328.42,223.25 325.38,224.35 325.24,224.47 C325.10,224.58 328.09,225.90 331.89,227.39 C345.98,232.92 364.87,247.68 373.04,259.56 C387.39,280.42 387.47,305.70 373.24,323.61 C368.55,329.51 357.46,337.35 354.79,336.66 C353.81,336.40 353.00,336.53 353.00,336.94 C353.00,337.36 355.86,343.73 359.35,351.10 C368.56,370.51 371.62,378.79 370.34,380.83 C369.77,381.75 367.05,383.79 364.30,385.37 L 359.30 388.24 L 362.56 393.09 C364.36,395.76 366.33,399.47 366.94,401.33 L 368.06 404.71 L 377.78 405.36 C404.71,407.14 422.00,410.90 422.00,414.99 C422.00,417.56 417.61,419.12 404.00,421.38 C395.98,422.72 387.59,423.57 358.00,426.06 C346.22,427.06 236.54,428.10 216.00,427.41 ZM 363.10 417.87 C364.97,417.25 367.13,416.15 367.90,415.43 C370.01,413.46 367.44,410.22 360.41,406.00 C354.83,402.65 354.16,402.50 345.04,402.50 C333.57,402.50 326.31,404.66 322.49,409.19 C320.18,411.95 320.06,412.46 321.33,414.37 C322.11,415.54 324.49,417.03 326.62,417.67 C331.68,419.20 358.66,419.35 363.10,417.87 ZM 217.75 411.97 C221.22,410.73 222.04,408.11 219.61,406.09 C216.92,403.86 206.45,399.28 201.18,398.03 C194.70,396.49 189.49,397.23 182.67,400.63 C174.33,404.80 170.06,409.68 173.10,411.56 C177.10,414.04 211.12,414.34 217.75,411.97 ZM 297.00 401.87 C297.00,401.41 295.99,400.82 294.75,400.55 C293.51,400.28 289.48,399.34 285.78,398.46 C279.67,396.99 278.41,396.99 271.78,398.40 C267.78,399.25 263.18,400.07 261.58,400.23 C259.97,400.38 258.49,400.99 258.30,401.59 C258.05,402.36 263.80,402.69 277.47,402.70 C288.21,402.70 297.00,402.33 297.00,401.87 ZM 323.08 392.47 C330.40,390.94 345.04,386.26 346.33,385.03 C346.78,384.60 345.89,381.83 344.34,378.87 C339.70,370.01 339.62,369.46 343.53,372.89 C345.47,374.60 347.25,376.00 347.46,376.00 C348.11,376.00 344.16,364.48 339.20,351.92 C337.96,348.79 330.12,342.09 324.15,339.06 C321.76,337.85 319.65,337.01 319.47,337.20 C319.29,337.38 320.18,341.46 321.46,346.26 C322.75,351.06 323.43,354.76 322.98,354.49 C322.27,354.05 315.77,342.68 312.63,336.37 C311.81,334.72 310.35,334.11 306.28,333.69 C299.22,332.96 293.10,329.46 290.36,324.58 L 288.17 320.66 L 281.33 320.87 C277.57,320.99 273.09,321.33 271.37,321.63 L 268.24 322.18 L 273.21 333.28 C279.00,346.22 279.11,345.90 267.93,348.45 C256.97,350.94 257.95,351.83 254.02,335.96 C250.91,323.40 250.33,321.95 248.53,322.21 C246.87,322.45 246.24,323.94 244.82,331.00 C240.74,351.29 241.22,350.01 237.68,349.93 C235.93,349.90 232.02,349.05 229.00,348.05 C223.97,346.39 223.51,345.99 223.63,343.37 C223.70,341.79 225.42,336.07 227.46,330.66 C229.49,325.25 230.90,320.57 230.60,320.26 C230.29,319.96 227.87,319.50 225.21,319.25 L 220.38 318.78 L 216.59 326.64 C214.50,330.96 212.10,336.30 211.25,338.50 C210.40,340.70 209.39,342.85 209.01,343.29 C208.19,344.23 210.19,334.34 212.84,324.31 C214.76,317.03 214.54,316.00 211.03,316.00 C209.82,316.00 202.59,330.46 199.53,339.00 C196.70,346.90 190.02,372.30 190.01,375.20 C189.98,381.01 197.15,385.99 209.27,388.59 C218.04,390.47 236.76,390.38 244.36,388.41 C253.64,386.00 254.05,385.53 248.93,383.17 C246.49,382.04 242.02,379.49 239.00,377.49 C232.97,373.51 232.58,373.59 245.74,376.14 C249.18,376.80 252.26,377.07 252.60,376.74 C252.93,376.40 251.80,372.65 250.09,368.41 C248.38,364.16 247.14,360.53 247.34,360.33 C247.54,360.12 248.85,361.69 250.25,363.80 C253.98,369.43 265.28,380.35 272.09,384.90 C278.57,389.23 286.96,392.73 294.00,394.04 C299.61,395.08 314.36,394.28 323.08,392.47 ZM 359.28 377.23 C358.92,373.94 344.18,340.49 343.42,341.25 C343.21,341.46 345.98,349.70 349.57,359.56 C353.15,369.43 356.30,378.10 356.55,378.83 C357.25,380.88 359.53,379.55 359.28,377.23 ZM 342.12 337.73 C341.14,336.75 341.02,336.87 341.56,338.29 C341.94,339.28 342.50,339.83 342.81,339.53 C343.11,339.22 342.81,338.41 342.12,337.73 ZM 351.74 326.99 C352.14,324.67 350.52,322.86 348.67,323.57 C346.98,324.22 346.41,327.07 347.70,328.37 C348.83,329.50 351.45,328.60 351.74,326.99 ZM 319.13 325.59 C326.27,322.60 330.01,318.18 331.36,311.11 C333.52,299.76 321.81,289.00 307.29,289.00 C301.88,289.00 297.36,290.86 293.63,294.61 C290.46,297.80 289.01,300.84 289.74,302.75 C290.54,304.87 292.67,304.15 296.43,300.50 C298.92,298.09 300.96,297.00 303.02,297.00 C307.33,297.00 306.70,298.59 301.01,302.09 C295.81,305.29 292.00,309.66 292.00,312.43 C292.00,314.54 296.21,316.42 299.25,315.65 C300.57,315.32 303.35,313.89 305.44,312.48 C310.86,308.80 310.93,310.10 305.55,314.51 C303.05,316.56 301.00,318.85 301.00,319.60 C301.00,322.12 305.99,322.40 311.38,320.17 L 316.50 318.06 L 312.50 321.53 C309.20,324.40 308.76,325.18 310.00,325.99 C312.11,327.37 315.20,327.23 319.13,325.59 ZM 364.50 318.87 C376.53,305.56 378.23,284.90 368.71,267.74 C362.81,257.10 348.49,242.83 337.36,236.49 C334.30,234.75 334.15,234.76 331.20,236.86 C326.39,240.28 323.58,247.18 323.19,256.50 C322.86,264.24 324.68,272.00 326.83,272.00 C328.19,272.00 332.74,266.71 335.42,262.00 C338.30,256.93 338.65,258.07 336.62,265.90 L 335.23 271.23 L 341.12 270.57 C344.35,270.20 347.00,270.14 347.00,270.43 C347.00,270.72 345.09,271.96 342.75,273.19 L 338.50 275.42 L 344.00 276.05 C349.73,276.71 357.07,279.56 360.50,282.47 L 362.50 284.16 L 360.50 283.45 C355.31,281.61 347.03,280.03 342.50,280.03 C337.38,280.02 328.74,281.93 325.40,283.79 C323.71,284.74 323.82,284.91 326.51,285.50 C341.57,288.83 354.73,302.33 358.06,317.85 C358.67,320.68 359.53,323.00 359.97,323.00 C360.41,323.00 362.44,321.14 364.50,318.87 ZM 254.57 310.34 C261.86,309.34 257.43,308.15 246.08,308.07 C236.09,308.00 234.97,308.52 242.11,309.92 C248.00,311.08 248.94,311.11 254.57,310.34 ZM 285.58 299.11 C286.30,296.66 288.50,293.04 290.55,290.95 C294.27,287.14 294.43,285.00 291.00,285.00 C289.96,285.00 288.85,284.56 288.52,284.03 C287.60,282.55 292.34,281.73 297.96,282.40 C300.73,282.73 305.25,283.27 308.00,283.60 C314.36,284.36 314.43,283.37 308.55,275.51 C306.10,272.24 304.26,269.40 304.46,269.21 C304.65,269.01 306.18,269.56 307.86,270.43 C312.58,272.87 312.92,272.41 311.01,266.25 C310.04,263.09 308.94,258.48 308.57,256.00 C307.85,251.09 308.65,251.51 312.20,257.93 C314.16,261.46 316.00,261.95 316.00,258.93 C316.00,254.72 321.24,241.37 324.59,237.07 L 328.03 232.63 L 324.88 231.31 C317.70,228.29 314.97,228.54 306.50,233.00 C279.87,247.02 256.59,268.03 238.02,294.78 C235.40,298.57 234.03,301.42 234.58,301.97 C236.01,303.37 241.87,303.69 263.89,303.59 L 284.28 303.50 L 285.58 299.11 ZM 238.98 287.89 C247.09,276.13 270.39,252.57 282.00,244.39 C286.67,241.09 294.19,236.12 298.71,233.35 L 306.91 228.31 L 294.21 228.78 C286.68,229.06 280.46,229.78 278.94,230.55 C271.27,234.45 252.00,252.23 239.98,266.50 C232.22,275.71 217.51,297.84 218.49,298.83 C218.86,299.20 221.26,300.00 223.83,300.60 C229.40,301.91 229.19,302.08 238.98,287.89 ZM 220.14 287.11 C223.39,281.95 228.77,274.16 232.10,269.79 L 238.15 261.86 L 233.05 251.68 C230.25,246.08 227.15,238.15 226.17,234.06 C223.40,222.52 221.99,223.56 218.13,240.00 C211.57,267.95 208.57,290.11 210.63,295.47 C211.82,298.59 214.28,296.44 220.14,287.11 ZM 164.32 276.88 C168.38,274.80 174.13,268.53 177.51,262.50 C181.14,256.02 185.00,243.54 185.00,238.27 C185.00,236.42 185.51,235.00 186.18,235.00 C187.51,235.00 201.72,249.15 204.25,253.00 L 205.90 255.50 L 205.93 252.50 C205.97,249.68 204.12,240.95 202.55,236.50 C202.16,235.37 203.55,236.38 205.75,238.81 C210.24,243.76 210.10,243.83 214.99,234.07 C217.98,228.10 218.09,227.54 216.50,226.37 C215.55,225.68 212.24,224.85 209.14,224.53 C196.74,223.26 191.69,221.64 177.00,214.25 C176.73,214.11 176.66,219.74 176.84,226.75 C177.20,240.02 176.37,246.08 172.77,256.49 C170.16,264.05 165.04,271.96 162.75,271.98 C160.48,272.01 160.54,270.80 163.00,266.77 C165.48,262.70 165.49,262.00 163.08,262.00 C158.12,262.00 156.03,259.01 150.84,244.50 L 147.98 236.50 L 148.53 246.00 C149.36,260.29 153.07,272.33 157.76,276.03 C160.66,278.31 161.35,278.40 164.32,276.88 ZM 247.86 251.94 L 253.21 246.11 L 251.20 243.28 C250.09,241.72 247.83,237.49 246.17,233.87 C243.19,227.36 243.11,227.29 238.44,226.65 C235.84,226.29 232.43,226.00 230.84,226.00 C228.22,226.00 228.02,226.25 228.57,228.75 C231.42,241.74 239.05,258.43 241.90,257.89 C242.23,257.82 244.91,255.15 247.86,251.94 ZM 169.38 233.88 C170.16,229.97 169.99,217.51 169.10,213.50 C168.61,211.30 167.94,210.59 166.59,210.82 C165.10,211.08 164.85,210.69 165.32,208.82 C168.61,195.70 169.14,192.56 168.58,189.59 C168.23,187.72 167.30,185.66 166.51,185.01 C164.44,183.29 147.40,178.91 145.54,179.62 C143.55,180.39 142.41,184.83 143.68,186.90 C145.19,189.39 151.12,192.00 155.25,192.00 C157.31,192.00 159.00,192.38 159.00,192.84 C159.00,194.14 154.24,196.00 150.93,196.00 C148.20,196.00 148.01,196.22 148.62,198.75 C149.48,202.35 151.56,206.42 153.55,208.41 C155.01,209.86 154.96,210.00 153.02,210.00 C151.85,210.00 149.46,208.45 147.70,206.56 C143.48,202.02 140.21,201.26 136.71,204.02 C135.22,205.19 134.00,206.76 134.00,207.52 C134.00,210.08 140.73,214.13 146.95,215.31 C153.03,216.46 154.79,218.30 150.98,219.51 C148.98,220.14 148.98,220.16 150.93,222.82 C155.82,229.51 164.36,237.00 167.10,237.00 C168.15,237.00 168.98,235.86 169.38,233.88 ZM 309.90 218.54 C314.51,217.71 318.46,216.88 318.66,216.67 C318.86,216.47 318.30,214.57 317.41,212.44 C316.52,210.31 315.50,205.64 315.15,202.07 L 314.50 195.57 L 293.00 195.87 C265.16,196.25 231.36,194.25 216.60,191.35 L 213.69 190.77 L 214.31 195.96 C215.14,202.99 219.32,212.00 221.74,212.00 C222.77,212.00 224.03,212.39 224.55,212.87 C226.96,215.07 249.16,219.54 262.00,220.41 C272.76,221.13 301.63,220.01 309.90,218.54 ZM 330.84 213.35 C335.94,211.60 343.17,207.74 347.76,204.32 L 351.02 201.89 L 347.96 199.32 C341.63,193.99 338.43,183.19 339.25,169.87 C339.53,165.27 340.56,159.12 341.54,156.21 C343.49,150.45 348.64,145.00 352.14,145.00 C353.90,145.00 354.11,144.58 353.55,142.25 C352.17,136.55 345.18,126.74 337.81,120.17 C335.38,118.00 335.02,117.94 332.35,119.33 C328.62,121.28 324.72,125.53 322.10,130.49 C319.37,135.67 319.45,136.66 322.75,138.38 C330.73,142.53 333.16,149.03 333.26,166.50 C333.32,178.07 333.08,180.02 331.04,184.27 C328.62,189.34 325.17,192.67 321.34,193.63 C319.18,194.17 319.00,194.72 319.02,200.86 C319.05,209.08 321.99,216.61 324.75,215.53 C325.71,215.15 328.45,214.17 330.84,213.35 ZM 211.44 200.49 C210.67,197.20 210.02,193.25 210.02,191.72 C210.01,190.19 209.36,188.69 208.58,188.39 C207.81,188.10 205.89,186.01 204.33,183.76 C201.55,179.74 201.50,179.42 201.50,165.59 C201.50,142.21 204.70,136.97 221.70,132.46 C244.53,126.42 285.36,126.60 308.77,132.84 L 316.04 134.78 L 318.54 129.52 C319.91,126.62 323.28,122.14 326.03,119.57 L 331.04 114.89 L 323.77 111.55 C306.98,103.83 287.63,100.48 264.50,101.28 C248.89,101.82 239.34,103.65 229.16,108.03 C224.72,109.94 223.93,110.76 222.14,115.34 C221.03,118.18 219.83,122.86 219.47,125.75 C218.77,131.33 217.85,132.75 216.23,130.74 C215.22,129.49 216.16,119.18 217.47,117.06 C217.82,116.48 217.68,116.00 217.15,116.00 C215.13,116.00 207.14,126.20 203.69,133.20 C194.79,151.24 193.64,176.29 200.96,192.54 C203.42,197.99 211.37,207.96 212.43,206.91 C212.66,206.67 212.22,203.79 211.44,200.49 ZM 134.81 197.75 C135.01,196.72 134.54,196.00 133.66,196.00 C131.80,196.00 127.13,190.54 125.34,186.25 C123.88,182.78 121.61,181.98 120.61,184.58 C118.87,189.10 121.08,196.75 124.75,198.95 C127.57,200.63 134.42,199.82 134.81,197.75 ZM 373.33 196.00 C373.97,196.00 372.94,195.21 371.03,194.25 C364.98,191.20 363.50,187.21 363.50,174.00 C363.50,164.24 363.81,161.98 365.53,159.04 C366.65,157.13 368.68,155.30 370.03,154.96 C372.49,154.36 372.49,154.35 370.29,153.62 C364.32,151.65 359.83,159.83 359.65,173.00 C359.58,177.68 360.12,183.57 360.85,186.10 C362.79,192.83 367.33,197.53 370.83,196.42 C371.56,196.19 372.69,196.00 373.33,196.00 ZM 139.51 189.75 C137.64,183.89 137.76,180.82 139.99,177.80 C141.86,175.27 142.00,174.58 140.86,173.46 C140.11,172.73 138.29,171.83 136.80,171.47 C134.68,170.95 133.53,171.38 131.43,173.48 C129.12,175.79 128.83,176.76 129.25,180.57 C129.90,186.27 134.11,192.00 137.67,192.00 C139.88,192.00 140.13,191.69 139.51,189.75 ZM 306.00 182.25 C313.46,178.52 317.22,173.06 317.80,165.11 C318.25,158.91 316.85,152.99 314.35,150.49 C312.45,148.60 302.86,148.56 294.20,150.42 C287.54,151.85 285.17,153.00 288.88,153.00 C291.92,153.00 296.56,155.53 298.44,158.22 C300.23,160.77 300.49,166.83 298.95,170.20 C297.25,173.94 291.62,177.00 286.46,177.00 C280.53,177.00 276.67,174.92 274.63,170.64 C272.63,166.41 272.57,163.34 274.45,159.75 C276.11,156.56 275.92,156.47 271.95,158.53 C269.28,159.91 269.00,160.52 269.00,165.07 C269.00,181.92 288.51,190.98 306.00,182.25 ZM 232.58 181.87 C240.07,179.99 247.00,170.26 247.00,161.63 C247.00,160.19 246.81,159.00 246.58,159.00 C246.35,159.00 245.56,158.77 244.83,158.49 C243.82,158.11 243.50,159.32 243.50,163.47 C243.50,168.34 243.13,169.33 240.23,172.23 C237.52,174.95 236.21,175.50 232.50,175.50 C228.79,175.50 227.48,174.95 224.77,172.23 C221.80,169.26 221.50,168.41 221.50,162.89 C221.50,157.46 221.80,156.57 224.37,154.36 C225.94,153.01 227.07,151.76 226.87,151.60 C225.66,150.61 219.21,149.00 216.44,149.00 C213.46,149.00 213.05,149.39 211.59,153.68 C209.64,159.42 209.54,166.99 211.37,171.28 C213.31,175.83 218.16,180.30 222.66,181.67 C227.63,183.19 227.37,183.19 232.58,181.87 ZM 159.80 173.38 C157.98,170.84 155.92,167.98 155.22,167.01 C154.51,166.05 153.47,162.39 152.90,158.89 C152.34,155.38 151.02,150.57 149.97,148.19 C148.21,144.23 147.79,143.90 144.78,144.18 C138.19,144.82 137.91,150.49 143.69,166.51 C146.55,174.47 146.59,174.52 150.38,174.84 C152.47,175.02 155.83,175.77 157.84,176.51 C163.29,178.52 163.37,178.39 159.80,173.38 ZM 353.65 172.23 C354.29,171.83 355.29,168.89 355.88,165.70 C356.47,162.51 357.86,157.85 358.97,155.34 C360.08,152.83 360.74,150.38 360.43,149.89 C359.61,148.56 354.75,148.87 352.76,150.39 C348.70,153.46 344.62,168.63 347.05,171.56 C348.32,173.10 351.75,173.45 353.65,172.23 ZM 190.00 165.07 C190.00,162.91 190.48,157.69 191.07,153.47 C191.65,149.25 191.89,145.56 191.60,145.26 C190.59,144.26 185.91,148.10 184.86,150.80 C184.29,152.29 183.34,156.30 182.76,159.72 C181.54,166.95 182.50,169.00 187.12,169.00 C189.80,169.00 190.00,168.73 190.00,165.07 ZM 294.00 160.47 C294.00,157.37 291.40,156.17 289.29,158.29 C287.17,160.40 288.37,163.00 291.47,163.00 C293.51,163.00 294.00,162.51 294.00,160.47 ZM 241.00 159.55 C241.00,156.24 235.78,154.53 234.65,157.47 C233.75,159.83 236.75,162.20 239.07,160.96 C240.13,160.39 241.00,159.76 241.00,159.55 ZM 253.94 85.68 C258.29,72.31 262.35,63.41 264.65,62.20 C268.02,60.43 282.26,59.81 293.00,60.98 C310.57,62.89 325.29,67.29 343.50,76.07 C352.70,80.51 353.22,80.65 350.00,77.87 C344.39,73.03 323.57,63.34 312.87,60.59 C298.23,56.83 280.51,55.41 266.76,56.87 C259.32,57.67 255.13,58.56 254.41,59.51 C252.06,62.61 245.32,94.99 246.74,96.40 C246.94,96.61 247.90,96.58 248.87,96.32 C250.08,96.01 251.64,92.72 253.94,85.68 ZM 297.19 88.50 C300.39,80.31 300.68,77.72 298.38,78.18 C296.29,78.59 286.63,93.59 287.52,95.02 C287.89,95.62 289.60,95.97 291.32,95.81 C294.20,95.53 294.68,94.92 297.19,88.50 ZM 166.00 121.49 C143.59,117.53 144.81,117.91 145.50,115.16 C147.12,108.69 147.42,108.69 161.32,115.50 C168.35,118.95 174.38,122.05 174.72,122.39 C175.48,123.15 175.20,123.12 166.00,121.49 ZM 173.37 109.70 C170.55,107.39 165.68,103.53 162.55,101.13 L 156.85 96.77 L 159.58 93.92 C161.08,92.35 162.66,91.29 163.10,91.56 C163.54,91.83 166.80,95.82 170.36,100.43 C181.81,115.26 182.40,117.09 173.37,109.70 ZM 184.60 96.49 C182.07,90.17 180.00,84.61 180.00,84.16 C180.00,82.95 184.67,81.00 187.55,81.00 L 190.00 81.00 L 190.00 94.50 C190.00,101.93 189.82,108.00 189.60,108.00 C189.39,108.00 187.14,102.82 184.60,96.49 Z" fill="var(--icon-color)"/>
</g>
</svg>