<?xml version="1.0" standalone="no"?>
<!DOCTYPE svg PUBLIC "-//W3C//DTD SVG 20010904//EN"
 "http://www.w3.org/TR/2001/REC-SVG-20010904/DTD/svg10.dtd">
<svg version="1.0" xmlns="http://www.w3.org/2000/svg"
 width="1080.000000pt" height="1080.000000pt" viewBox="0 0 1080.000000 1080.000000"
 preserveAspectRatio="xMidYMid meet">

<g transform="translate(0.000000,1080.000000) scale(0.100000,-0.100000)"
fill="currentColor" stroke="none">
<path d="M5754 8531 c-28 -5 -94 -30 -147 -55 -340 -167 -439 -590 -207 -887
61 -78 118 -124 218 -174 l73 -37 -3 -152 -3 -151 -1145 -5 -1145 -5 -70 -23
c-98 -33 -213 -95 -274 -147 -147 -126 -259 -317 -278 -478 l-8 -62 -183 -3
c-167 -2 -183 -1 -188 15 -58 177 -220 329 -404 378 -64 17 -224 19 -290 4
-65 -15 -178 -72 -233 -118 -165 -138 -244 -349 -208 -556 39 -225 228 -424
446 -470 284 -60 562 79 670 336 l23 54 181 3 181 2 0 -470 0 -470 -493 0
-494 0 -38 78 c-49 100 -169 221 -267 270 -336 166 -738 -21 -834 -388 -16
-63 -18 -205 -3 -270 15 -67 85 -202 131 -255 74 -84 191 -157 293 -184 57
-15 250 -13 311 3 148 39 298 168 369 314 l39 82 493 0 493 0 0 -495 0 -495
-300 0 c-278 0 -301 1 -306 18 -23 70 -76 154 -134 213 -161 163 -396 219
-605 146 -159 -56 -245 -130 -342 -297 -28 -48 -63 -192 -63 -260 0 -168 90
-349 229 -463 171 -140 455 -161 651 -49 107 61 237 209 255 291 3 16 12 34
19 40 9 8 107 10 307 9 l293 -3 12 -71 c27 -163 93 -285 223 -414 77 -76 114
-104 186 -142 177 -91 -107 -83 2930 -83 2203 0 2692 2 2745 13 300 62 558
335 605 640 4 23 11 42 16 42 11 0 12 3017 1 3022 -4 2 -18 44 -30 93 -55 229
-204 416 -413 522 -151 77 -150 77 -636 81 l-433 3 0 157 1 157 77 37 c138 65
246 185 299 329 24 66 27 88 27 199 0 106 -3 135 -23 190 -64 175 -180 290
-366 366 -63 25 -81 28 -190 28 -106 -1 -128 -4 -189 -27 -160 -62 -270 -161
-337 -302 -49 -101 -63 -174 -56 -296 11 -210 130 -389 327 -488 l75 -38 0
-154 0 -154 -787 -3 -788 -2 0 158 0 158 53 22 c72 31 178 111 228 174 188
237 167 574 -48 785 -105 103 -233 160 -374 167 -52 3 -117 1 -145 -3z m231
-291 c208 -90 259 -357 98 -518 -61 -60 -121 -84 -213 -85 -111 -1 -189 32
-255 111 -76 90 -92 231 -39 336 78 156 254 223 409 156z m1948 -8 c113 -52
176 -154 177 -282 0 -93 -35 -175 -100 -234 -66 -59 -121 -80 -215 -80 -124 0
-217 53 -282 162 -26 43 -28 55 -28 147 0 77 4 109 18 136 82 164 265 229 430
151z m919 -1584 c99 -46 184 -139 213 -233 22 -74 23 -3034 0 -3108 -28 -94
-113 -187 -215 -236 l-55 -26 -2675 0 -2675 0 -65 32 c-85 42 -155 112 -194
193 l-31 65 0 1525 0 1525 26 56 c52 110 132 186 234 221 47 16 205 17 2715
15 l2665 -2 57 -27z m-6882 -184 c230 -106 252 -416 39 -554 -67 -43 -120 -55
-209 -47 -109 10 -204 79 -252 184 -66 145 -20 294 124 402 34 26 94 40 168
40 60 1 86 -4 130 -25z m-634 -1293 c59 -26 122 -87 156 -151 31 -60 33 -214
4 -272 -30 -61 -90 -122 -152 -153 -51 -26 -70 -30 -139 -30 -65 0 -89 5 -128
25 -119 60 -178 151 -185 282 -4 67 -1 84 23 135 75 165 256 235 421 164z
m352 -1324 c140 -37 241 -180 230 -327 -8 -111 -89 -229 -188 -273 -70 -30
-189 -28 -260 5 -200 93 -249 359 -95 513 48 48 76 65 132 80 64 17 117 18
181 2z"/>
<path d="M5720 6146 c-197 -42 -363 -162 -460 -332 -98 -172 -103 -222 -97
-1040 4 -698 3 -685 73 -827 88 -181 269 -326 464 -373 67 -16 239 -18 312 -3
192 38 383 189 473 374 77 157 76 154 72 950 -3 782 1 733 -78 892 -80 161
-231 286 -414 343 -90 27 -254 35 -345 16z"/>
<path d="M7644 6146 c-217 -50 -399 -199 -487 -401 -61 -137 -60 -133 -65
-825 -4 -751 -1 -801 71 -962 60 -134 188 -262 331 -332 50 -24 115 -49 144
-55 72 -15 243 -13 317 3 199 44 401 213 480 401 52 123 49 80 53 850 2 640 1
728 -14 795 -9 41 -19 80 -24 85 -4 6 -14 29 -23 52 -9 24 -33 67 -53 95 -99
144 -230 239 -391 283 -81 23 -262 28 -339 11z"/>
</g>
</svg>
